                                                                        S      1
,,,9HRing(2mm),22HAutodesk Inventor 2017,7Hunknown,32,38,7,99,15,,1.,2, G      1
2HMM,1,0.08,15H20190606.201937,0.01,10000.,5HAdmin,,11,0,15H20190606.140G      2
847;                                                                    G      3
     186       1                                                00000000D      1
     186             -69       1       0                               0D      2
     186       2                                                00000000D      3
     186             -69       1       0                               0D      4
     514       3                                                00010000D      5
     514                       1       1                               0D      6
     514       4                                                00010000D      7
     514                       1       1                               0D      8
     510       5                                                00010000D      9
     510             -69       1       1                               0D     10
     510       6                                                00010000D     11
     510             -69       1       1                               0D     12
     510       7                                                00010000D     13
     510             -69       1       1                               0D     14
     510       8                                                00010000D     15
     510             -69       1       1                               0D     16
     510       9                                                00010000D     17
     510             -69       1       1                               0D     18
     510      10                                                00010000D     19
     510             -69       1       1                               0D     20
     508      11                                                00010000D     21
     508                       1       1                               0D     22
     508      12                                                00010000D     23
     508                       1       1                               0D     24
     508      13                                                00010000D     25
     508                       1       1                               0D     26
     508      14                                                00010000D     27
     508                       1       1                               0D     28
     508      15                                                00010000D     29
     508                       1       1                               0D     30
     508      16                                                00010000D     31
     508                       1       1                               0D     32
     126      17                                                00010000D     33
     126       0              51       0                               0D     34
     126      68                                                00010000D     35
     126       0               7       0                               0D     36
     126      75                                                00010000D     37
     126       0               6       0                               0D     38
     126      81                                                00010000D     39
     126       0              51       0                               0D     40
     126     132                                                00010000D     41
     126       0               8       0                               0D     42
     126     140                                                00010000D     43
     126       0               6       0                               0D     44
     128     146                                                00010000D     45
     128       0     -69       6       0                               0D     46
     128     152                                                00010000D     47
     128       0     -69      63       0                               0D     48
     128     215                                                00010000D     49
     128       0     -69       3       0                               0D     50
     128     218                                                00010000D     51
     128       0     -69       6       0                               0D     52
     128     224                                                00010000D     53
     128       0     -69      63       0                               0D     54
     128     287                                                00010000D     55
     128       0     -69       3       0                               0D     56
     502     290                                                00010000D     57
     502                       2       1                               0D     58
     502     292                                                00010000D     59
     502                       2       1                               0D     60
     504     294                                                00010001D     61
     504                       1       1                               0D     62
     504     295                                                00010001D     63
     504                       1       1                               0D     64
     406     296                                                00000000D     65
     406                       1      15                               0D     66
     406     297                                                00000000D     67
     406                       1      15                               0D     68
     314     298                                                00000200D     69
     314                       1       0                               0D     70
186,5,1,0,0,1,65;                                                      1P      1
186,7,1,0,0,1,67;                                                      3P      2
514,3,9,1,11,1,13,1;                                                   5P      3
514,3,15,1,17,1,19,1;                                                  7P      4
510,45,1,1,21;                                                         9P      5
510,47,1,1,23;                                                        11P      6
510,49,1,1,25;                                                        13P      7
510,51,1,1,27;                                                        15P      8
510,53,1,1,29;                                                        17P      9
510,55,1,1,31;                                                        19P     10
508,1,0,61,1,1,0;                                                     21P     11
508,4,0,61,1,0,0,0,61,2,0,0,0,61,3,0,0,0,61,2,1,0;                    23P     12
508,1,0,61,3,1,0;                                                     25P     13
508,1,0,63,1,0,0;                                                     27P     14
508,4,0,63,1,1,0,0,63,2,1,0,0,63,3,1,0,0,63,2,0,0;                    29P     15
508,1,0,63,3,0,0;                                                     31P     16
126,35,3,0,1,1,1,-0.635683662799427,-0.635683662799427,               33P     17
-0.635683662799427,-0.635683662799427,-0.604092549791987,             33P     18
-0.604092549791987,-0.574427955715056,-0.574427955715056,             33P     19
-0.545564219242991,-0.545564219242991,-0.513330460096888,             33P     20
-0.513330460096888,-0.479309672489339,-0.479309672489339,             33P     21
-0.454290284798172,-0.454290284798172,-0.42784421652355,              33P     22
-0.42784421652355,-0.390965305688827,-0.390965305688827,              33P     23
-0.3496416249048,-0.3496416249048,-0.31869599125589,                  33P     24
-0.31869599125589,-0.286002995834436,-0.286002995834436,              33P     25
-0.232335752874703,-0.232335752874703,-0.168270652179128,             33P     26
-0.168270652179128,-0.1189233737789,-0.1189233737789,                 33P     27
-0.0831392985173176,-0.0831392985173176,-0.0455052472267898,          33P     28
-0.0455052472267898,0.,0.,0.,0.,1.,1.,1.,1.,1.,1.,1.,1.,1.,1.,        33P     29
1.,1.,1.,1.,1.,1.,1.,1.,1.,1.,1.,1.,1.,1.,1.,1.,1.,1.,1.,1.,1.,       33P     30
1.,1.,1.,1.,1.,-50.6875,-5.10806918887509D-15,-0.6875,                33P     31
-50.6130390325574,-5.10806918887509D-15,-0.761960967442641,           33P     32
-50.5280839356292,-4.2105954782524D-14,-0.82720251531311,             33P     33
-50.3500506268991,-4.2105954782524D-14,-0.926921615401705,            33P     34
-50.2535537312438,-3.08769264835619D-14,-0.965596028935939,           33P     35
-50.0472580596601,-3.08769264835619D-14,-1.00505771849074,            33P     36
-49.9439708135176,-2.30230175397625D-14,-1.00537889557706,            33P     37
-49.7136062583899,-2.30230175397625D-14,-0.956748995827421,           33P     38
-49.5928201342817,-1.94525662720772D-14,-0.903448781252175,           33P     39
-49.364757800236,-1.94525662720772D-14,-0.748232127364609,            33P     40
-49.2559278113151,-2.13972417351145D-14,-0.642088406589361,           33P     41
-49.1073756743046,-2.13972417351145D-14,-0.422531621692107,           33P     42
-49.0551001200384,-2.46840081546544D-14,-0.315838815868573,           33P     43
-48.9940506080671,-2.46840081546544D-14,-0.0746309111729053,          33P     44
-48.9962244191154,-2.58897818870904D-14,0.033895129000452,            33P     45
-49.0271184050571,-2.58897818870904D-14,0.23607146349817,             33P     46
-49.0715250083857,-2.67804401406095D-14,0.354165670092113,            33P     47
-49.2119293771628,-2.67804401406095D-14,0.58810082123145,             33P     48
-49.3146527155333,-2.69056881361258D-14,0.704053886796807,            33P     49
-49.5323307769704,-2.69056881361258D-14,0.867272707932611,            33P     50
-49.6405462555146,-2.7582502947935D-14,0.926712692329775,             33P     51
-49.8873334120585,-2.7582502947935D-14,1.00173634131106,              33P     52
-49.9951419366572,-2.87857081911664D-14,1.00306386382047,             33P     53
-50.1768693906607,-2.87857081911664D-14,0.98786509370458,             33P     54
-50.2913582249959,-3.31964181397946D-14,0.953530670978291,            33P     55
-50.5304264724395,-3.31964181397946D-14,0.831414759469835,            33P     56
-50.6537624355356,-3.93329697926856D-14,0.734081757771495,            33P     57
-50.833859999679,-3.93329697926856D-14,0.520634000046291,             33P     58
-50.9020431595867,-4.32102971866133D-14,0.411034282461861,            33P     59
-50.979438356765,-4.32102971866133D-14,0.199034523814979,             33P     60
-51.000039801608,-8.88178419700125D-15,0.101977163337968,             33P     61
-50.999958023833,-8.88178419700125D-15,-0.107848990847216,            33P     62
-50.9766361387374,-2.22044604925031D-14,-0.218269046894392,           33P     63
-50.8788047946354,-2.22044604925031D-14,-0.455334689514998,           33P     64
-50.7947568963121,-4.56338304936523D-17,-0.580243103687886,           33P     65
-50.6875,-4.56338304936523D-17,-0.687499999999999,                    33P     66
-0.635683662799427,0.,0.,0.,0.;                                       33P     67
126,6,3,0,0,1,0,0.,0.,0.,0.,1.,2.,3.,4.,4.,4.,4.,1.,1.,1.,1.,1.,      35P     68
1.,1.,51.,-2.22044604925031D-15,0.,51.,13.3213976231508,              35P     69
-6.93889390390722D-17,39.9641928694524,39.9641928694524,0.,           35P     70
-1.55431223447522D-14,56.5179035652738,5.20417042793042D-17,          35P     71
-39.9641928694524,39.9641928694524,5.20417042793042D-17,-51.,         35P     72
13.3213976231508,5.20417042793042D-17,-51.,                           35P     73
-9.99200722162641D-15,5.20417042793042D-17,0.,4.,0.,0.,0.;            35P     74
126,6,3,0,1,1,1,0.,0.,0.,0.,1.,2.,3.,4.,4.,4.,4.,1.,1.,1.,1.,1.,      37P     75
1.,1.,51.,-2.22044604925031D-15,0.,51.,-2.22044604925031D-15,         37P     76
0.5,50.,-2.22044604925031D-15,1.5,48.5,-9.71445146547012D-16,         37P     77
6.93889390390723D-17,50.,-1.11022302462516D-15,-1.5,51.,              37P     78
-1.59594559789866D-15,-0.5,51.,-2.35922392732846D-15,                 37P     79
-6.93889390390723D-17,0.,4.,0.,0.,0.;                                 37P     80
126,35,3,0,1,1,1,-0.635683662799427,-0.635683662799427,               39P     81
-0.635683662799427,-0.635683662799427,-0.604092549791987,             39P     82
-0.604092549791987,-0.574427955715056,-0.574427955715056,             39P     83
-0.545564219242991,-0.545564219242991,-0.513330460096888,             39P     84
-0.513330460096888,-0.479309672489339,-0.479309672489339,             39P     85
-0.454290284798172,-0.454290284798172,-0.42784421652355,              39P     86
-0.42784421652355,-0.390965305688827,-0.390965305688827,              39P     87
-0.3496416249048,-0.3496416249048,-0.31869599125589,                  39P     88
-0.31869599125589,-0.286002995834436,-0.286002995834436,              39P     89
-0.232335752874703,-0.232335752874703,-0.168270652179128,             39P     90
-0.168270652179128,-0.1189233737789,-0.1189233737789,                 39P     91
-0.0831392985173176,-0.0831392985173176,-0.0455052472267898,          39P     92
-0.0455052472267898,0.,0.,0.,0.,1.,1.,1.,1.,1.,1.,1.,1.,1.,1.,        39P     93
1.,1.,1.,1.,1.,1.,1.,1.,1.,1.,1.,1.,1.,1.,1.,1.,1.,1.,1.,1.,1.,       39P     94
1.,1.,1.,1.,1.,-50.6875,-5.10806918887509D-15,-0.6875,                39P     95
-50.6130390325574,-5.10806918887509D-15,-0.761960967442641,           39P     96
-50.5280839356292,-4.2105954782524D-14,-0.82720251531311,             39P     97
-50.3500506268991,-4.2105954782524D-14,-0.926921615401705,            39P     98
-50.2535537312438,-3.08769264835619D-14,-0.965596028935939,           39P     99
-50.0472580596601,-3.08769264835619D-14,-1.00505771849074,            39P    100
-49.9439708135176,-2.30230175397625D-14,-1.00537889557706,            39P    101
-49.7136062583899,-2.30230175397625D-14,-0.956748995827421,           39P    102
-49.5928201342817,-1.94525662720772D-14,-0.903448781252175,           39P    103
-49.364757800236,-1.94525662720772D-14,-0.748232127364609,            39P    104
-49.2559278113151,-2.13972417351145D-14,-0.642088406589361,           39P    105
-49.1073756743046,-2.13972417351145D-14,-0.422531621692107,           39P    106
-49.0551001200384,-2.46840081546544D-14,-0.315838815868573,           39P    107
-48.9940506080671,-2.46840081546544D-14,-0.0746309111729053,          39P    108
-48.9962244191154,-2.58897818870904D-14,0.033895129000452,            39P    109
-49.0271184050571,-2.58897818870904D-14,0.23607146349817,             39P    110
-49.0715250083857,-2.67804401406095D-14,0.354165670092113,            39P    111
-49.2119293771628,-2.67804401406095D-14,0.58810082123145,             39P    112
-49.3146527155333,-2.69056881361258D-14,0.704053886796807,            39P    113
-49.5323307769704,-2.69056881361258D-14,0.867272707932611,            39P    114
-49.6405462555146,-2.7582502947935D-14,0.926712692329775,             39P    115
-49.8873334120585,-2.7582502947935D-14,1.00173634131106,              39P    116
-49.9951419366572,-2.87857081911664D-14,1.00306386382047,             39P    117
-50.1768693906607,-2.87857081911664D-14,0.98786509370458,             39P    118
-50.2913582249959,-3.31964181397946D-14,0.953530670978291,            39P    119
-50.5304264724395,-3.31964181397946D-14,0.831414759469835,            39P    120
-50.6537624355356,-3.93329697926856D-14,0.734081757771495,            39P    121
-50.833859999679,-3.93329697926856D-14,0.520634000046291,             39P    122
-50.9020431595867,-4.32102971866133D-14,0.411034282461861,            39P    123
-50.979438356765,-4.32102971866133D-14,0.199034523814979,             39P    124
-51.000039801608,-8.88178419700125D-15,0.101977163337968,             39P    125
-50.999958023833,-8.88178419700125D-15,-0.107848990847216,            39P    126
-50.9766361387374,-2.22044604925031D-14,-0.218269046894392,           39P    127
-50.8788047946354,-2.22044604925031D-14,-0.455334689514998,           39P    128
-50.7947568963121,-4.56338304936523D-17,-0.580243103687886,           39P    129
-50.6875,-4.56338304936523D-17,-0.687499999999999,                    39P    130
-0.635683662799427,0.,0.,0.,0.;                                       39P    131
126,6,3,0,0,1,0,4.,4.,4.,4.,5.,6.,7.,8.,8.,8.,8.,1.,1.,1.,1.,1.,      41P    132
1.,1.,-51.,-9.99200722162641D-15,5.20417042793042D-17,-51.,           41P    133
-13.3213976231508,5.20417042793042D-17,-39.9641928694524,             41P    134
-39.9641928694524,5.20417042793042D-17,-1.33226762955019D-14,         41P    135
-56.5179035652738,5.20417042793042D-17,39.9641928694524,              41P    136
-39.9641928694524,5.20417042793042D-17,51.,-13.3213976231508,         41P    137
6.93889390390723D-17,51.,-2.22044604925031D-15,0.,4.,8.,0.,0.,        41P    138
0.;                                                                   41P    139
126,6,3,0,1,1,1,0.,0.,0.,0.,1.,2.,3.,4.,4.,4.,4.,1.,1.,1.,1.,1.,      43P    140
1.,1.,51.,-2.22044604925031D-15,0.,51.,-2.22044604925031D-15,         43P    141
0.5,50.,-2.22044604925031D-15,1.5,48.5,-9.71445146547012D-16,         43P    142
6.93889390390723D-17,50.,-1.11022302462516D-15,-1.5,51.,              43P    143
-1.59594559789866D-15,-0.5,51.,-2.35922392732846D-15,                 43P    144
-6.93889390390723D-17,0.,4.,0.,0.,0.;                                 43P    145
128,1,1,1,1,0,0,1,0,0,-0.101306386382047,-0.101306386382047,          45P    146
0.101537889557706,0.101537889557706,-5.101,-5.101,                    45P    147
-4.89840506080671,-4.89840506080671,1.,1.,1.,1.,-51.01,0.,            45P    148
1.01306386382047,-51.01,0.,-1.01537889557706,-48.9840506080671,       45P    149
0.,1.01306386382047,-48.9840506080671,0.,-1.01537889557706,           45P    150
-0.101306386382047,0.101537889557706,-5.101,-4.89840506080671;        45P    151
128,10,6,3,3,1,1,1,0,0,0.,0.,0.,0.,1.,2.,3.,4.,5.,6.,7.,8.,8.,        47P    152
8.,8.,0.,0.,0.,0.,1.,2.,3.,4.,4.,4.,4.,1.,1.,1.,1.,1.,1.,1.,1.,       47P    153
1.,1.,1.,1.,1.,1.,1.,1.,1.,1.,1.,1.,1.,1.,1.,1.,1.,1.,1.,1.,1.,       47P    154
1.,1.,1.,1.,1.,1.,1.,1.,1.,1.,1.,1.,1.,1.,1.,1.,1.,1.,1.,1.,1.,       47P    155
1.,1.,1.,1.,1.,1.,1.,1.,1.,1.,1.,1.,1.,1.,1.,1.,1.,1.,1.,1.,1.,       47P    156
1.,1.,1.,1.,1.,1.,51.,-1.66533453693773D-15,0.,51.,                   47P    157
13.3213976231508,0.,39.9641928694524,39.9641928694524,0.,             47P    158
-1.55431223447522D-14,56.5179035652738,5.20417042793042D-17,          47P    159
-39.9641928694524,39.9641928694524,5.20417042793042D-17,              47P    160
-56.5179035652738,-1.33226762955019D-14,5.20417042793042D-17,         47P    161
-39.9641928694524,-39.9641928694524,5.20417042793042D-17,             47P    162
-1.33226762955019D-14,-56.5179035652738,5.20417042793042D-17,         47P    163
39.9641928694524,-39.9641928694524,5.20417042793042D-17,51.,          47P    164
-13.3213976231508,6.93889390390723D-17,51.,                           47P    165
-2.22044604925031D-15,0.,51.,-1.66533453693773D-15,0.5,51.,           47P    166
13.3213976231508,0.5,39.9641928694524,39.9641928694524,0.5,           47P    167
-1.55431223447522D-14,56.5179035652738,0.5,-39.9641928694524,         47P    168
39.9641928694524,0.5,-56.5179035652738,-1.33226762955019D-14,         47P    169
0.5,-39.9641928694524,-39.9641928694524,0.5,                          47P    170
-3.99680288865056D-14,-56.5179035652738,0.5,39.9641928694524,         47P    171
-39.9641928694524,0.5,51.,-13.3213976231508,0.5,51.,                  47P    172
-2.22044604925031D-15,0.5,50.,-1.66533453693773D-15,1.5,50.,          47P    173
13.0601937481871,1.5,39.1805812445612,39.1805812445612,1.5,           47P    174
3.77475828372553D-14,55.4097093777194,1.5,-39.1805812445612,          47P    175
39.1805812445611,1.5,-55.4097093777194,3.99680288865056D-14,1.5,      47P    176
-39.1805812445612,-39.1805812445612,1.5,-4.44089209850063D-15,        47P    177
-55.4097093777194,1.5,39.1805812445612,-39.1805812445612,1.5,         47P    178
50.,-13.0601937481871,1.5,50.,-2.22044604925031D-15,1.5,48.5,         47P    179
-2.77555756156289D-16,6.93889390390723D-17,48.5,                      47P    180
12.6683879357415,6.93889390390723D-17,38.0051638072244,               47P    181
38.0051638072244,2.08166817117217D-16,-5.10702591327572D-14,          47P    182
53.7474180963878,2.81025203108243D-15,-38.0051638072244,              47P    183
38.0051638072246,2.81025203108243D-15,-53.7474180963878,              47P    184
-4.9960036108132D-14,2.81025203108243D-15,-38.0051638072244,          47P    185
-38.0051638072244,2.81025203108243D-15,4.44089209850063D-15,          47P    186
-53.7474180963878,2.81025203108243D-15,38.0051638072244,              47P    187
-38.0051638072244,2.81025203108243D-15,48.5,-12.6683879357414,        47P    188
5.20417042793042D-16,48.5,-9.71445146547012D-16,                      47P    189
6.93889390390723D-17,50.,-1.11022302462516D-15,-1.5,50.,              47P    190
13.0601937481871,-1.5,39.1805812445612,39.1805812445612,-1.5,         47P    191
1.77635683940025D-14,55.4097093777194,-1.5,-39.1805812445612,         47P    192
39.1805812445613,-1.5,-55.4097093777194,2.44249065417534D-14,         47P    193
-1.5,-39.1805812445614,-39.1805812445612,-1.5,                        47P    194
-1.06581410364015D-13,-55.4097093777194,-1.5,39.1805812445612,        47P    195
-39.1805812445614,-1.5,50.,-13.0601937481871,-1.5,50.,                47P    196
-1.11022302462516D-15,-1.5,51.,-1.66533453693773D-15,-0.5,51.,        47P    197
13.3213976231508,-0.5,39.9641928694525,39.9641928694524,-0.5,         47P    198
-8.21565038222616D-14,56.5179035652737,-0.5,-39.9641928694524,        47P    199
39.9641928694525,-0.5,-56.5179035652738,-7.21644966006352D-14,        47P    200
-0.5,-39.9641928694525,-39.9641928694524,-0.5,                        47P    201
4.44089209850063D-15,-56.5179035652737,-0.5,39.9641928694524,         47P    202
-39.9641928694525,-0.5,51.,-13.3213976231508,-0.5,51.,                47P    203
-1.59594559789866D-15,-0.5,51.,-1.66533453693773D-15,                 47P    204
-6.93889390390723D-17,51.,13.3213976231508,                           47P    205
-6.93889390390723D-17,39.9641928694524,39.9641928694524,              47P    206
-6.93889390390723D-17,-1.55431223447522D-14,56.5179035652738,         47P    207
5.55111512312578D-16,-39.9641928694525,39.9641928694524,              47P    208
5.55111512312578D-16,-56.5179035652738,-1.33226762955019D-14,         47P    209
5.55111512312578D-16,-39.9641928694524,-39.9641928694524,             47P    210
5.55111512312578D-16,-1.33226762955019D-14,-56.5179035652738,         47P    211
5.55111512312578D-16,39.9641928694524,-39.9641928694524,              47P    212
5.55111512312578D-16,51.,-13.3213976231508,3.46944695195361D-16,      47P    213
51.,-2.35922392732846D-15,-6.93889390390723D-17,0.,8.,0.,4.;          47P    214
128,1,1,1,1,0,0,1,0,0,-0.101,-0.101,0.101,0.101,4.899,4.899,          49P    215
5.101,5.101,1.,1.,1.,1.,48.99,0.,1.01,48.99,0.,-1.01,51.01,0.,        49P    216
1.01,51.01,0.,-1.01,-0.101,0.101,4.899,5.101;                         49P    217
128,1,1,1,1,0,0,1,0,0,-0.101306386382047,-0.101306386382047,          51P    218
0.101537889557706,0.101537889557706,-5.101,-5.101,                    51P    219
-4.89840506080671,-4.89840506080671,1.,1.,1.,1.,-51.01,0.,            51P    220
-1.01537889557706,-51.01,0.,1.01306386382047,-48.9840506080671,       51P    221
0.,-1.01537889557706,-48.9840506080671,0.,1.01306386382047,           51P    222
-0.101306386382047,0.101537889557706,-5.101,-4.89840506080671;        51P    223
128,10,6,3,3,1,1,1,0,0,0.,0.,0.,0.,1.,2.,3.,4.,5.,6.,7.,8.,8.,        53P    224
8.,8.,0.,0.,0.,0.,1.,2.,3.,4.,4.,4.,4.,1.,1.,1.,1.,1.,1.,1.,1.,       53P    225
1.,1.,1.,1.,1.,1.,1.,1.,1.,1.,1.,1.,1.,1.,1.,1.,1.,1.,1.,1.,1.,       53P    226
1.,1.,1.,1.,1.,1.,1.,1.,1.,1.,1.,1.,1.,1.,1.,1.,1.,1.,1.,1.,1.,       53P    227
1.,1.,1.,1.,1.,1.,1.,1.,1.,1.,1.,1.,1.,1.,1.,1.,1.,1.,1.,1.,1.,       53P    228
1.,1.,1.,1.,1.,1.,51.,-1.66533453693773D-15,0.,51.,                   53P    229
13.3213976231508,0.,39.9641928694524,39.9641928694524,0.,             53P    230
-1.55431223447522D-14,56.5179035652738,5.20417042793042D-17,          53P    231
-39.9641928694524,39.9641928694524,5.20417042793042D-17,              53P    232
-56.5179035652738,-1.33226762955019D-14,5.20417042793042D-17,         53P    233
-39.9641928694524,-39.9641928694524,5.20417042793042D-17,             53P    234
-1.33226762955019D-14,-56.5179035652738,5.20417042793042D-17,         53P    235
39.9641928694524,-39.9641928694524,5.20417042793042D-17,51.,          53P    236
-13.3213976231508,6.93889390390723D-17,51.,                           53P    237
-2.22044604925031D-15,0.,51.,-1.66533453693773D-15,0.5,51.,           53P    238
13.3213976231508,0.5,39.9641928694524,39.9641928694524,0.5,           53P    239
-1.55431223447522D-14,56.5179035652738,0.5,-39.9641928694524,         53P    240
39.9641928694524,0.5,-56.5179035652738,-1.33226762955019D-14,         53P    241
0.5,-39.9641928694524,-39.9641928694524,0.5,                          53P    242
-3.99680288865056D-14,-56.5179035652738,0.5,39.9641928694524,         53P    243
-39.9641928694524,0.5,51.,-13.3213976231508,0.5,51.,                  53P    244
-2.22044604925031D-15,0.5,50.,-1.66533453693773D-15,1.5,50.,          53P    245
13.0601937481871,1.5,39.1805812445612,39.1805812445612,1.5,           53P    246
3.77475828372553D-14,55.4097093777194,1.5,-39.1805812445612,          53P    247
39.1805812445611,1.5,-55.4097093777194,3.99680288865056D-14,1.5,      53P    248
-39.1805812445612,-39.1805812445612,1.5,-4.44089209850063D-15,        53P    249
-55.4097093777194,1.5,39.1805812445612,-39.1805812445612,1.5,         53P    250
50.,-13.0601937481871,1.5,50.,-2.22044604925031D-15,1.5,48.5,         53P    251
-2.77555756156289D-16,6.93889390390723D-17,48.5,                      53P    252
12.6683879357415,6.93889390390723D-17,38.0051638072244,               53P    253
38.0051638072244,2.08166817117217D-16,-5.10702591327572D-14,          53P    254
53.7474180963878,2.81025203108243D-15,-38.0051638072244,              53P    255
38.0051638072246,2.81025203108243D-15,-53.7474180963878,              53P    256
-4.9960036108132D-14,2.81025203108243D-15,-38.0051638072244,          53P    257
-38.0051638072244,2.81025203108243D-15,4.44089209850063D-15,          53P    258
-53.7474180963878,2.81025203108243D-15,38.0051638072244,              53P    259
-38.0051638072244,2.81025203108243D-15,48.5,-12.6683879357414,        53P    260
5.20417042793042D-16,48.5,-9.71445146547012D-16,                      53P    261
6.93889390390723D-17,50.,-1.11022302462516D-15,-1.5,50.,              53P    262
13.0601937481871,-1.5,39.1805812445612,39.1805812445612,-1.5,         53P    263
1.77635683940025D-14,55.4097093777194,-1.5,-39.1805812445612,         53P    264
39.1805812445613,-1.5,-55.4097093777194,2.44249065417534D-14,         53P    265
-1.5,-39.1805812445614,-39.1805812445612,-1.5,                        53P    266
-1.06581410364015D-13,-55.4097093777194,-1.5,39.1805812445612,        53P    267
-39.1805812445614,-1.5,50.,-13.0601937481871,-1.5,50.,                53P    268
-1.11022302462516D-15,-1.5,51.,-1.66533453693773D-15,-0.5,51.,        53P    269
13.3213976231508,-0.5,39.9641928694525,39.9641928694524,-0.5,         53P    270
-8.21565038222616D-14,56.5179035652737,-0.5,-39.9641928694524,        53P    271
39.9641928694525,-0.5,-56.5179035652738,-7.21644966006352D-14,        53P    272
-0.5,-39.9641928694525,-39.9641928694524,-0.5,                        53P    273
4.44089209850063D-15,-56.5179035652737,-0.5,39.9641928694524,         53P    274
-39.9641928694525,-0.5,51.,-13.3213976231508,-0.5,51.,                53P    275
-1.59594559789866D-15,-0.5,51.,-1.66533453693773D-15,                 53P    276
-6.93889390390723D-17,51.,13.3213976231508,                           53P    277
-6.93889390390723D-17,39.9641928694524,39.9641928694524,              53P    278
-6.93889390390723D-17,-1.55431223447522D-14,56.5179035652738,         53P    279
5.55111512312578D-16,-39.9641928694525,39.9641928694524,              53P    280
5.55111512312578D-16,-56.5179035652738,-1.33226762955019D-14,         53P    281
5.55111512312578D-16,-39.9641928694524,-39.9641928694524,             53P    282
5.55111512312578D-16,-1.33226762955019D-14,-56.5179035652738,         53P    283
5.55111512312578D-16,39.9641928694524,-39.9641928694524,              53P    284
5.55111512312578D-16,51.,-13.3213976231508,3.46944695195361D-16,      53P    285
51.,-2.35922392732846D-15,-6.93889390390723D-17,0.,8.,0.,4.;          53P    286
128,1,1,1,1,0,0,1,0,0,-0.101,-0.101,0.101,0.101,4.899,4.899,          55P    287
5.101,5.101,1.,1.,1.,1.,48.99,0.,-1.01,48.99,0.,1.01,51.01,0.,        55P    288
-1.01,51.01,0.,1.01,-0.101,0.101,4.899,5.101;                         55P    289
502,2,-51.,-4.9960036108132D-15,5.20417042793042D-17,51.,             57P    290
-1.66533453693773D-15,-6.93889390390723D-17;                          57P    291
502,2,-51.,-4.9960036108132D-15,5.20417042793042D-17,51.,             59P    292
-1.66533453693773D-15,-6.93889390390723D-17;                          59P    293
504,3,33,57,1,57,1,35,57,2,57,1,37,57,2,57,2;                         61P    294
504,3,39,59,1,59,1,41,59,1,59,2,43,59,2,59,2;                         63P    295
406,1,7HSolid11;                                                      65P    296
406,1,7HSolid12;                                                      67P    297
314,74.9019607843137,74.9019607843137,74.9019607843137,;              69P    298
S      1G      3D     70P    298                                        T      1
