                                                                        S      1
,,,9HRing(6mm),22HAutodesk Inventor 2017,7Hunknown,32,38,7,99,15,,1.,2, G      1
2HMM,1,0.08,15H20190606.202756,0.01,10000.,5HAdmin,,11,0,15H20190606.140G      2
847;                                                                    G      3
     186       1                                                00000000D      1
     186             -69       1       0                               0D      2
     186       2                                                00000000D      3
     186             -69       1       0                               0D      4
     514       3                                                00010000D      5
     514                       1       1                               0D      6
     514       4                                                00010000D      7
     514                       1       1                               0D      8
     510       5                                                00010000D      9
     510             -69       1       1                               0D     10
     510       6                                                00010000D     11
     510             -69       1       1                               0D     12
     510       7                                                00010000D     13
     510             -69       1       1                               0D     14
     510       8                                                00010000D     15
     510             -69       1       1                               0D     16
     510       9                                                00010000D     17
     510             -69       1       1                               0D     18
     510      10                                                00010000D     19
     510             -69       1       1                               0D     20
     508      11                                                00010000D     21
     508                       1       1                               0D     22
     508      12                                                00010000D     23
     508                       1       1                               0D     24
     508      13                                                00010000D     25
     508                       1       1                               0D     26
     508      14                                                00010000D     27
     508                       1       1                               0D     28
     508      15                                                00010000D     29
     508                       1       1                               0D     30
     508      16                                                00010000D     31
     508                       1       1                               0D     32
     126      17                                                00010000D     33
     126       0              50       0                               0D     34
     126      67                                                00010000D     35
     126       0               8       0                               0D     36
     126      75                                                00010000D     37
     126       0               6       0                               0D     38
     126      81                                                00010000D     39
     126       0              50       0                               0D     40
     126     131                                                00010000D     41
     126       0               8       0                               0D     42
     126     139                                                00010000D     43
     126       0               6       0                               0D     44
     128     145                                                00010000D     45
     128       0     -69       6       0                               0D     46
     128     151                                                00010000D     47
     128       0     -69      66       0                               0D     48
     128     217                                                00010000D     49
     128       0     -69       3       0                               0D     50
     128     220                                                00010000D     51
     128       0     -69       6       0                               0D     52
     128     226                                                00010000D     53
     128       0     -69      66       0                               0D     54
     128     292                                                00010000D     55
     128       0     -69       3       0                               0D     56
     502     295                                                00010000D     57
     502                       2       1                               0D     58
     502     297                                                00010000D     59
     502                       2       1                               0D     60
     504     299                                                00010001D     61
     504                       1       1                               0D     62
     504     300                                                00010001D     63
     504                       1       1                               0D     64
     406     301                                                00000000D     65
     406                       1      15                               0D     66
     406     302                                                00000000D     67
     406                       1      15                               0D     68
     314     303                                                00000200D     69
     314                       1       0                               0D     70
186,5,1,0,0,1,65;                                                      1P      1
186,7,1,0,0,1,67;                                                      3P      2
514,3,9,1,11,1,13,1;                                                   5P      3
514,3,15,1,17,1,19,1;                                                  7P      4
510,45,1,1,21;                                                         9P      5
510,47,1,1,23;                                                        11P      6
510,49,1,1,25;                                                        13P      7
510,51,1,1,27;                                                        15P      8
510,53,1,1,29;                                                        17P      9
510,55,1,1,31;                                                        19P     10
508,1,0,61,1,1,0;                                                     21P     11
508,4,0,61,1,0,0,0,61,2,0,0,0,61,3,0,0,0,61,2,1,0;                    23P     12
508,1,0,61,3,1,0;                                                     25P     13
508,1,0,63,1,0,0;                                                     27P     14
508,4,0,63,1,1,0,0,63,2,1,0,0,63,3,1,0,0,63,2,0,0;                    29P     15
508,1,0,63,3,0,0;                                                     31P     16
126,35,3,0,1,1,1,-0.953525494199071,-0.953525494199071,               33P     17
-0.953525494199071,-0.953525494199071,-0.906138824687925,             33P     18
-0.906138824687925,-0.861641933572534,-0.861641933572534,             33P     19
-0.818346328864415,-0.818346328864415,-0.769995690145202,             33P     20
-0.769995690145202,-0.718964508733777,-0.718964508733777,             33P     21
-0.68143542719693,-0.68143542719693,-0.641766324784889,               33P     22
-0.641766324784889,-0.586447958532672,-0.586447958532672,             33P     23
-0.52446243735646,-0.52446243735646,-0.47804398688293,                33P     24
-0.47804398688293,-0.429004493750651,-0.429004493750651,              33P     25
-0.348503629311359,-0.348503629311359,-0.252405978268321,             33P     26
-0.252405978268321,-0.178385060668167,-0.178385060668167,             33P     27
-0.124708947775885,-0.124708947775885,-0.0682578708401532,            33P     28
-0.0682578708401532,0.,0.,0.,0.,1.,1.,1.,1.,1.,1.,1.,1.,1.,1.,        33P     29
1.,1.,1.,1.,1.,1.,1.,1.,1.,1.,1.,1.,1.,1.,1.,1.,1.,1.,1.,1.,1.,       33P     30
1.,1.,1.,1.,1.,-48.96875,6.68980932366675D-15,-1.03125,               33P     31
-48.8570585488361,6.68980932366675D-15,-0.91955854883608,             33P     32
-48.7591962270303,7.1408280626098D-15,-0.792125903443722,             33P     33
-48.6096175768974,7.1408280626098D-15,-0.52507594034858,              33P     34
-48.551605956596,4.96959067022091D-15,-0.380330596865521,             33P     35
-48.4924134222638,4.96959067022091D-15,-0.0708870894900512,           33P     36
-48.4919316566344,1.45287274592983D-15,0.0840437797237823,            33P     37
-48.5648765062589,1.45287274592983D-15,0.429590612415284,             33P     38
-48.6448268281218,-6.07648960089841D-15,0.610769798577608,            33P     39
-48.8776518089531,-6.07648960089841D-15,0.952863299646175,            33P     40
-49.036867390116,-1.52490106884403D-14,1.11610828302738,              33P     41
-49.3662025674619,-1.52490106884403D-14,1.33893648854312,             33P     42
-49.5262417761972,-2.13387344692014D-14,1.41734981994239,             33P     43
-49.8880536332406,-2.13387344692014D-14,1.50892408789936,             33P     44
-50.0508426935006,-2.44117138338711D-14,1.50566337132693,             33P     45
-50.3541071952473,-2.44117138338711D-14,1.45932239241437,             33P     46
-50.5312485051382,-2.45837487446342D-14,1.39271248742147,             33P     47
-50.8821512318473,-2.45837487446342D-14,1.18210593425578,             33P     48
-51.0560808301953,-2.25570578082619D-14,1.02802092670001,             33P     49
-51.300909061899,-2.25570578082619D-14,0.701503834544333,             33P     50
-51.3900690384947,-2.07874991256854D-14,0.539180616727975,            33P     51
-51.5026045119665,-2.07874991256854D-14,0.168999881912596,            33P     52
-51.5045957957308,-1.77635683940025D-14,0.0072870950147194,           33P     53
-51.4817976405569,-1.77635683940025D-14,-0.265304085991139,           33P     54
-51.4302960064674,-8.88178419700125D-15,-0.437037337493957,           33P     55
-51.2471221392047,-8.88178419700125D-15,-0.795639708659396,           33P     56
-51.1011226366572,0.,-0.980643653303487,-50.7809510000694,0.,         33P     57
-1.25078999951858,-50.6165514236927,4.44089209850063D-15,             33P     58
-1.35306473938011,-50.2985517857224,4.44089209850063D-15,             33P     59
-1.4691575351475,-50.1529657450069,4.44089209850063D-15,              33P     60
-1.50005970241202,-49.8382265137291,4.44089209850063D-15,             33P     61
-1.49993703574952,-49.6725964296584,4.44089209850063D-15,             33P     62
-1.46495420810604,-49.3169979657274,4.44089209850063D-15,             33P     63
-1.31820719195302,-49.1296353444681,7.94217264008402D-15,             33P     64
-1.19213534446809,-48.96875,7.94217264008402D-15,-1.03125,            33P     65
-0.953525494199071,0.,0.,0.,0.;                                       33P     66
126,6,3,0,0,1,0,0.,0.,0.,0.,1.,2.,3.,4.,4.,4.,4.,1.,1.,1.,1.,1.,      35P     67
1.,1.,51.5,-2.22044604925031D-15,-6.93889390390723D-17,51.5,          35P     68
13.4519995606327,-2.42861286636753D-16,40.355998681898,               35P     69
40.3559986818981,-3.46944695195361D-17,1.99840144432528D-14,          35P     70
57.072000659051,1.21430643318376D-16,-40.355998681898,                35P     71
40.355998681898,1.21430643318376D-16,-51.5,13.4519995606327,          35P     72
1.21430643318376D-16,-51.5,1.4432899320127D-14,                       35P     73
1.21430643318376D-16,0.,4.,0.,0.,0.;                                  35P     74
126,6,3,0,1,1,1,0.,0.,0.,0.,1.,2.,3.,4.,4.,4.,4.,1.,1.,1.,1.,1.,      37P     75
1.,1.,51.5,-2.22044604925031D-15,-6.93889390390723D-17,51.5,          37P     76
-2.22044604925031D-15,0.75,50.,-2.22044604925031D-15,2.25,47.75,      37P     77
-9.71445146547012D-16,2.77555756156289D-16,50.,                       37P     78
-1.11022302462516D-15,-2.25,51.5,-1.59594559789866D-15,-0.75,         37P     79
51.5,-2.35922392732846D-15,0.,0.,4.,0.,0.,0.;                         37P     80
126,35,3,0,1,1,1,-0.953525494199071,-0.953525494199071,               39P     81
-0.953525494199071,-0.953525494199071,-0.906138824687925,             39P     82
-0.906138824687925,-0.861641933572534,-0.861641933572534,             39P     83
-0.818346328864415,-0.818346328864415,-0.769995690145202,             39P     84
-0.769995690145202,-0.718964508733777,-0.718964508733777,             39P     85
-0.68143542719693,-0.68143542719693,-0.641766324784889,               39P     86
-0.641766324784889,-0.586447958532672,-0.586447958532672,             39P     87
-0.52446243735646,-0.52446243735646,-0.47804398688293,                39P     88
-0.47804398688293,-0.429004493750651,-0.429004493750651,              39P     89
-0.348503629311359,-0.348503629311359,-0.252405978268321,             39P     90
-0.252405978268321,-0.178385060668167,-0.178385060668167,             39P     91
-0.124708947775885,-0.124708947775885,-0.0682578708401532,            39P     92
-0.0682578708401532,0.,0.,0.,0.,1.,1.,1.,1.,1.,1.,1.,1.,1.,1.,        39P     93
1.,1.,1.,1.,1.,1.,1.,1.,1.,1.,1.,1.,1.,1.,1.,1.,1.,1.,1.,1.,1.,       39P     94
1.,1.,1.,1.,1.,-48.96875,6.68980932366675D-15,-1.03125,               39P     95
-48.8570585488361,6.68980932366675D-15,-0.91955854883608,             39P     96
-48.7591962270303,7.1408280626098D-15,-0.792125903443722,             39P     97
-48.6096175768974,7.1408280626098D-15,-0.52507594034858,              39P     98
-48.551605956596,4.96959067022091D-15,-0.380330596865521,             39P     99
-48.4924134222638,4.96959067022091D-15,-0.0708870894900512,           39P    100
-48.4919316566344,1.45287274592983D-15,0.0840437797237823,            39P    101
-48.5648765062589,1.45287274592983D-15,0.429590612415284,             39P    102
-48.6448268281218,-6.07648960089841D-15,0.610769798577608,            39P    103
-48.8776518089531,-6.07648960089841D-15,0.952863299646175,            39P    104
-49.036867390116,-1.52490106884403D-14,1.11610828302738,              39P    105
-49.3662025674619,-1.52490106884403D-14,1.33893648854312,             39P    106
-49.5262417761972,-2.13387344692014D-14,1.41734981994239,             39P    107
-49.8880536332406,-2.13387344692014D-14,1.50892408789936,             39P    108
-50.0508426935006,-2.44117138338711D-14,1.50566337132693,             39P    109
-50.3541071952473,-2.44117138338711D-14,1.45932239241437,             39P    110
-50.5312485051382,-2.45837487446342D-14,1.39271248742147,             39P    111
-50.8821512318473,-2.45837487446342D-14,1.18210593425578,             39P    112
-51.0560808301953,-2.25570578082619D-14,1.02802092670001,             39P    113
-51.300909061899,-2.25570578082619D-14,0.701503834544333,             39P    114
-51.3900690384947,-2.07874991256854D-14,0.539180616727975,            39P    115
-51.5026045119665,-2.07874991256854D-14,0.168999881912596,            39P    116
-51.5045957957308,-1.77635683940025D-14,0.0072870950147194,           39P    117
-51.4817976405569,-1.77635683940025D-14,-0.265304085991139,           39P    118
-51.4302960064674,-8.88178419700125D-15,-0.437037337493957,           39P    119
-51.2471221392047,-8.88178419700125D-15,-0.795639708659396,           39P    120
-51.1011226366572,0.,-0.980643653303487,-50.7809510000694,0.,         39P    121
-1.25078999951858,-50.6165514236927,4.44089209850063D-15,             39P    122
-1.35306473938011,-50.2985517857224,4.44089209850063D-15,             39P    123
-1.4691575351475,-50.1529657450069,4.44089209850063D-15,              39P    124
-1.50005970241202,-49.8382265137291,4.44089209850063D-15,             39P    125
-1.49993703574952,-49.6725964296584,4.44089209850063D-15,             39P    126
-1.46495420810604,-49.3169979657274,4.44089209850063D-15,             39P    127
-1.31820719195302,-49.1296353444681,7.94217264008402D-15,             39P    128
-1.19213534446809,-48.96875,7.94217264008402D-15,-1.03125,            39P    129
-0.953525494199071,0.,0.,0.,0.;                                       39P    130
126,6,3,0,0,1,0,4.,4.,4.,4.,5.,6.,7.,8.,8.,8.,8.,1.,1.,1.,1.,1.,      41P    131
1.,1.,-51.5,1.4432899320127D-14,1.21430643318376D-16,-51.5,           41P    132
-13.4519995606327,1.21430643318376D-16,-40.3559986818981,             41P    133
-40.355998681898,1.21430643318376D-16,1.33226762955019D-14,           41P    134
-57.072000659051,1.21430643318376D-16,40.355998681898,                41P    135
-40.3559986818981,1.21430643318376D-16,51.5,-13.4519995606327,        41P    136
1.04083408558608D-16,51.5,-2.22044604925031D-15,                      41P    137
-6.93889390390723D-17,4.,8.,0.,0.,0.;                                 41P    138
126,6,3,0,1,1,1,0.,0.,0.,0.,1.,2.,3.,4.,4.,4.,4.,1.,1.,1.,1.,1.,      43P    139
1.,1.,51.5,-2.22044604925031D-15,-6.93889390390723D-17,51.5,          43P    140
-2.22044604925031D-15,0.75,50.,-2.22044604925031D-15,2.25,47.75,      43P    141
-9.71445146547012D-16,2.77555756156289D-16,50.,                       43P    142
-1.11022302462516D-15,-2.25,51.5,-1.59594559789866D-15,-0.75,         43P    143
51.5,-2.35922392732846D-15,0.,0.,4.,0.,0.,0.;                         43P    144
128,1,1,1,1,0,0,1,0,0,-0.151892408789936,-0.151892408789936,          45P    145
0.151005970241202,0.151005970241202,-5.151,-5.151,                    45P    146
-4.84819316566344,-4.84819316566344,1.,1.,1.,1.,-51.51,0.,            45P    147
1.51892408789936,-51.51,0.,-1.51005970241202,-48.4819316566344,       45P    148
0.,1.51892408789936,-48.4819316566344,0.,-1.51005970241202,           45P    149
-0.151892408789936,0.151005970241202,-5.151,-4.84819316566344;        45P    150
128,10,6,3,3,1,1,1,0,0,0.,0.,0.,0.,1.,2.,3.,4.,5.,6.,7.,8.,8.,        47P    151
8.,8.,0.,0.,0.,0.,1.,2.,3.,4.,4.,4.,4.,1.,1.,1.,1.,1.,1.,1.,1.,       47P    152
1.,1.,1.,1.,1.,1.,1.,1.,1.,1.,1.,1.,1.,1.,1.,1.,1.,1.,1.,1.,1.,       47P    153
1.,1.,1.,1.,1.,1.,1.,1.,1.,1.,1.,1.,1.,1.,1.,1.,1.,1.,1.,1.,1.,       47P    154
1.,1.,1.,1.,1.,1.,1.,1.,1.,1.,1.,1.,1.,1.,1.,1.,1.,1.,1.,1.,1.,       47P    155
1.,1.,1.,1.,1.,1.,51.5,-1.66533453693773D-15,                         47P    156
-6.93889390390723D-17,51.5,13.4519995606327,                          47P    157
-3.46944695195361D-17,40.355998681898,40.3559986818981,               47P    158
-3.46944695195361D-17,1.99840144432528D-14,57.072000659051,           47P    159
1.21430643318376D-16,-40.355998681898,40.355998681898,                47P    160
1.21430643318376D-16,-57.072000659051,2.22044604925031D-14,           47P    161
1.21430643318376D-16,-40.3559986818981,-40.355998681898,              47P    162
1.21430643318376D-16,1.33226762955019D-14,-57.072000659051,           47P    163
1.21430643318376D-16,40.355998681898,-40.3559986818981,               47P    164
1.21430643318376D-16,51.5,-13.4519995606327,                          47P    165
1.04083408558608D-16,51.5,-2.22044604925031D-15,                      47P    166
-6.93889390390723D-17,51.5,-1.66533453693773D-15,0.75,51.5,           47P    167
13.4519995606327,0.75,40.355998681898,40.3559986818981,0.75,          47P    168
1.99840144432528D-14,57.072000659051,0.75,-40.355998681898,           47P    169
40.355998681898,0.75,-57.072000659051,2.22044604925031D-14,0.75,      47P    170
-40.3559986818981,-40.355998681898,0.75,-1.33226762955019D-14,        47P    171
-57.072000659051,0.75,40.355998681898,-40.3559986818981,0.75,         47P    172
51.5,-13.4519995606327,0.75,51.5,-2.22044604925031D-15,0.75,50.,      47P    173
-1.66533453693773D-15,2.25,50.,13.0601937481871,2.25,                 47P    174
39.1805812445612,39.1805812445612,2.25,-6.66133814775094D-15,         47P    175
55.4097093777194,2.25,-39.1805812445612,39.1805812445612,2.25,        47P    176
-55.4097093777194,-8.88178419700125D-15,2.25,-39.1805812445613,       47P    177
-39.1805812445612,2.25,4.44089209850063D-15,-55.4097093777194,        47P    178
2.25,39.1805812445612,-39.1805812445613,2.25,50.,                     47P    179
-13.0601937481871,2.25,50.,-2.22044604925031D-15,2.25,47.75,          47P    180
-2.77555756156289D-16,2.77555756156289D-16,47.75,                     47P    181
12.4724850295187,2.77555756156289D-16,37.4174550885559,               47P    182
37.417455088556,2.77555756156289D-16,6.66133814775094D-15,            47P    183
52.916272455722,-4.16333634234434D-16,-37.417455088556,               47P    184
37.4174550885559,-4.16333634234434D-16,-52.916272455722,              47P    185
9.43689570931383D-14,-4.16333634234434D-16,-37.4174550885557,         47P    186
-37.417455088556,-4.16333634234434D-16,-1.11022302462516D-14,         47P    187
-52.916272455722,-4.16333634234434D-16,37.417455088556,               47P    188
-37.4174550885557,-4.16333634234434D-16,47.7500000000001,             47P    189
-12.4724850295187,-2.08166817117217D-16,47.75,                        47P    190
-9.71445146547012D-16,2.77555756156289D-16,50.,                       47P    191
-1.11022302462516D-15,-2.25,50.,13.0601937481871,-2.25,               47P    192
39.1805812445612,39.1805812445612,-2.25,6.99440505513849D-14,         47P    193
55.4097093777194,-2.25,-39.1805812445612,39.1805812445612,-2.25,      47P    194
-55.4097093777194,7.32747196252603D-14,-2.25,-39.1805812445614,       47P    195
-39.1805812445612,-2.25,-1.75415237890775D-13,-55.4097093777194,      47P    196
-2.25,39.1805812445612,-39.1805812445614,-2.25,50.,                   47P    197
-13.0601937481871,-2.25,50.,-1.11022302462516D-15,-2.25,51.5,         47P    198
-1.66533453693773D-15,-0.75,51.5,13.4519995606327,-0.75,              47P    199
40.355998681898,40.3559986818981,-0.75,4.9960036108132D-14,           47P    200
57.0720006590509,-0.749999999999999,-40.355998681898,                 47P    201
40.355998681898,-0.749999999999999,-57.072000659051,                  47P    202
5.6621374255883D-14,-0.749999999999999,-40.355998681898,              47P    203
-40.3559986818981,-0.749999999999999,-7.105427357601D-14,             47P    204
-57.072000659051,-0.749999999999999,40.355998681898,                  47P    205
-40.355998681898,-0.749999999999999,51.5,-13.4519995606327,           47P    206
-0.75,51.5,-1.59594559789866D-15,-0.75,51.5,                          47P    207
-1.66533453693773D-15,0.,51.5,13.4519995606327,0.,                    47P    208
40.355998681898,40.3559986818981,0.,1.99840144432528D-14,             47P    209
57.072000659051,-4.16333634234434D-16,-40.3559986818981,              47P    210
40.355998681898,-4.16333634234434D-16,-57.072000659051,               47P    211
2.22044604925031D-14,-4.16333634234434D-16,-40.3559986818981,         47P    212
-40.3559986818981,-4.16333634234434D-16,1.33226762955019D-14,         47P    213
-57.072000659051,-4.16333634234434D-16,40.355998681898,               47P    214
-40.3559986818981,-4.16333634234434D-16,51.5,-13.4519995606327,       47P    215
-2.77555756156289D-16,51.5,-2.35922392732846D-15,0.,0.,8.,0.,4.;      47P    216
128,1,1,1,1,0,0,1,0,0,-0.151,-0.151,0.151,0.151,4.849,4.849,          49P    217
5.151,5.151,1.,1.,1.,1.,48.49,0.,1.51,48.49,0.,-1.51,51.51,0.,        49P    218
1.51,51.51,0.,-1.51,-0.151,0.151,4.849,5.151;                         49P    219
128,1,1,1,1,0,0,1,0,0,-0.151892408789936,-0.151892408789936,          51P    220
0.151005970241202,0.151005970241202,-5.151,-5.151,                    51P    221
-4.84819316566344,-4.84819316566344,1.,1.,1.,1.,-51.51,0.,            51P    222
-1.51005970241202,-51.51,0.,1.51892408789936,-48.4819316566344,       51P    223
0.,-1.51005970241202,-48.4819316566344,0.,1.51892408789936,           51P    224
-0.151892408789936,0.151005970241202,-5.151,-4.84819316566344;        51P    225
128,10,6,3,3,1,1,1,0,0,0.,0.,0.,0.,1.,2.,3.,4.,5.,6.,7.,8.,8.,        53P    226
8.,8.,0.,0.,0.,0.,1.,2.,3.,4.,4.,4.,4.,1.,1.,1.,1.,1.,1.,1.,1.,       53P    227
1.,1.,1.,1.,1.,1.,1.,1.,1.,1.,1.,1.,1.,1.,1.,1.,1.,1.,1.,1.,1.,       53P    228
1.,1.,1.,1.,1.,1.,1.,1.,1.,1.,1.,1.,1.,1.,1.,1.,1.,1.,1.,1.,1.,       53P    229
1.,1.,1.,1.,1.,1.,1.,1.,1.,1.,1.,1.,1.,1.,1.,1.,1.,1.,1.,1.,1.,       53P    230
1.,1.,1.,1.,1.,1.,51.5,-1.66533453693773D-15,                         53P    231
-6.93889390390723D-17,51.5,13.4519995606327,                          53P    232
-3.46944695195361D-17,40.355998681898,40.3559986818981,               53P    233
-3.46944695195361D-17,1.99840144432528D-14,57.072000659051,           53P    234
1.21430643318376D-16,-40.355998681898,40.355998681898,                53P    235
1.21430643318376D-16,-57.072000659051,2.22044604925031D-14,           53P    236
1.21430643318376D-16,-40.3559986818981,-40.355998681898,              53P    237
1.21430643318376D-16,1.33226762955019D-14,-57.072000659051,           53P    238
1.21430643318376D-16,40.355998681898,-40.3559986818981,               53P    239
1.21430643318376D-16,51.5,-13.4519995606327,                          53P    240
1.04083408558608D-16,51.5,-2.22044604925031D-15,                      53P    241
-6.93889390390723D-17,51.5,-1.66533453693773D-15,0.75,51.5,           53P    242
13.4519995606327,0.75,40.355998681898,40.3559986818981,0.75,          53P    243
1.99840144432528D-14,57.072000659051,0.75,-40.355998681898,           53P    244
40.355998681898,0.75,-57.072000659051,2.22044604925031D-14,0.75,      53P    245
-40.3559986818981,-40.355998681898,0.75,-1.33226762955019D-14,        53P    246
-57.072000659051,0.75,40.355998681898,-40.3559986818981,0.75,         53P    247
51.5,-13.4519995606327,0.75,51.5,-2.22044604925031D-15,0.75,50.,      53P    248
-1.66533453693773D-15,2.25,50.,13.0601937481871,2.25,                 53P    249
39.1805812445612,39.1805812445612,2.25,-6.66133814775094D-15,         53P    250
55.4097093777194,2.25,-39.1805812445612,39.1805812445612,2.25,        53P    251
-55.4097093777194,-8.88178419700125D-15,2.25,-39.1805812445613,       53P    252
-39.1805812445612,2.25,4.44089209850063D-15,-55.4097093777194,        53P    253
2.25,39.1805812445612,-39.1805812445613,2.25,50.,                     53P    254
-13.0601937481871,2.25,50.,-2.22044604925031D-15,2.25,47.75,          53P    255
-2.77555756156289D-16,2.77555756156289D-16,47.75,                     53P    256
12.4724850295187,2.77555756156289D-16,37.4174550885559,               53P    257
37.417455088556,2.77555756156289D-16,6.66133814775094D-15,            53P    258
52.916272455722,-4.16333634234434D-16,-37.417455088556,               53P    259
37.4174550885559,-4.16333634234434D-16,-52.916272455722,              53P    260
9.43689570931383D-14,-4.16333634234434D-16,-37.4174550885557,         53P    261
-37.417455088556,-4.16333634234434D-16,-1.11022302462516D-14,         53P    262
-52.916272455722,-4.16333634234434D-16,37.417455088556,               53P    263
-37.4174550885557,-4.16333634234434D-16,47.7500000000001,             53P    264
-12.4724850295187,-2.08166817117217D-16,47.75,                        53P    265
-9.71445146547012D-16,2.77555756156289D-16,50.,                       53P    266
-1.11022302462516D-15,-2.25,50.,13.0601937481871,-2.25,               53P    267
39.1805812445612,39.1805812445612,-2.25,6.99440505513849D-14,         53P    268
55.4097093777194,-2.25,-39.1805812445612,39.1805812445612,-2.25,      53P    269
-55.4097093777194,7.32747196252603D-14,-2.25,-39.1805812445614,       53P    270
-39.1805812445612,-2.25,-1.75415237890775D-13,-55.4097093777194,      53P    271
-2.25,39.1805812445612,-39.1805812445614,-2.25,50.,                   53P    272
-13.0601937481871,-2.25,50.,-1.11022302462516D-15,-2.25,51.5,         53P    273
-1.66533453693773D-15,-0.75,51.5,13.4519995606327,-0.75,              53P    274
40.355998681898,40.3559986818981,-0.75,4.9960036108132D-14,           53P    275
57.0720006590509,-0.749999999999999,-40.355998681898,                 53P    276
40.355998681898,-0.749999999999999,-57.072000659051,                  53P    277
5.6621374255883D-14,-0.749999999999999,-40.355998681898,              53P    278
-40.3559986818981,-0.749999999999999,-7.105427357601D-14,             53P    279
-57.072000659051,-0.749999999999999,40.355998681898,                  53P    280
-40.355998681898,-0.749999999999999,51.5,-13.4519995606327,           53P    281
-0.75,51.5,-1.59594559789866D-15,-0.75,51.5,                          53P    282
-1.66533453693773D-15,0.,51.5,13.4519995606327,0.,                    53P    283
40.355998681898,40.3559986818981,0.,1.99840144432528D-14,             53P    284
57.072000659051,-4.16333634234434D-16,-40.3559986818981,              53P    285
40.355998681898,-4.16333634234434D-16,-57.072000659051,               53P    286
2.22044604925031D-14,-4.16333634234434D-16,-40.3559986818981,         53P    287
-40.3559986818981,-4.16333634234434D-16,1.33226762955019D-14,         53P    288
-57.072000659051,-4.16333634234434D-16,40.355998681898,               53P    289
-40.3559986818981,-4.16333634234434D-16,51.5,-13.4519995606327,       53P    290
-2.77555756156289D-16,51.5,-2.35922392732846D-15,0.,0.,8.,0.,4.;      53P    291
128,1,1,1,1,0,0,1,0,0,-0.151,-0.151,0.151,0.151,4.849,4.849,          55P    292
5.151,5.151,1.,1.,1.,1.,48.49,0.,-1.51,48.49,0.,1.51,51.51,0.,        55P    293
-1.51,51.51,0.,1.51,-0.151,0.151,4.849,5.151;                         55P    294
502,2,-51.5,7.21644966006352D-15,1.21430643318376D-16,51.5,           57P    295
-1.66533453693773D-15,0.;                                             57P    296
502,2,-51.5,7.21644966006352D-15,1.21430643318376D-16,51.5,           59P    297
-1.66533453693773D-15,0.;                                             59P    298
504,3,33,57,1,57,1,35,57,2,57,1,37,57,2,57,2;                         61P    299
504,3,39,59,1,59,1,41,59,1,59,2,43,59,2,59,2;                         63P    300
406,1,7HSolid17;                                                      65P    301
406,1,7HSolid18;                                                      67P    302
314,74.9019607843137,74.9019607843137,74.9019607843137,;              69P    303
S      1G      3D     70P    303                                        T      1
