                                                                        S      1
,,,4HRing,22HAutodesk Inventor 2017,7Hunknown,32,38,7,99,15,,1.,2,2HMM, G      1
1,0.08,15H20190606.194847,0.01,10000.,5HAdmin,,11,0,15H20190606.140847; G      2
     186       1                                                00000000D      1
     186             -69       1       0                               0D      2
     186       2                                                00000000D      3
     186             -69       1       0                               0D      4
     514       3                                                00010000D      5
     514                       1       1                               0D      6
     514       4                                                00010000D      7
     514                       1       1                               0D      8
     510       5                                                00010000D      9
     510             -69       1       1                               0D     10
     510       6                                                00010000D     11
     510             -69       1       1                               0D     12
     510       7                                                00010000D     13
     510             -69       1       1                               0D     14
     510       8                                                00010000D     15
     510             -69       1       1                               0D     16
     510       9                                                00010000D     17
     510             -69       1       1                               0D     18
     510      10                                                00010000D     19
     510             -69       1       1                               0D     20
     508      11                                                00010000D     21
     508                       1       1                               0D     22
     508      12                                                00010000D     23
     508                       1       1                               0D     24
     508      13                                                00010000D     25
     508                       1       1                               0D     26
     508      14                                                00010000D     27
     508                       1       1                               0D     28
     508      15                                                00010000D     29
     508                       1       1                               0D     30
     508      16                                                00010000D     31
     508                       1       1                               0D     32
     126      17                                                00010000D     33
     126       0              50       0                               0D     34
     126      67                                                00010000D     35
     126       0               7       0                               0D     36
     126      74                                                00010000D     37
     126       0               6       0                               0D     38
     126      80                                                00010000D     39
     126       0              50       0                               0D     40
     126     130                                                00010000D     41
     126       0               8       0                               0D     42
     126     138                                                00010000D     43
     126       0               6       0                               0D     44
     128     144                                                00010000D     45
     128       0     -69       6       0                               0D     46
     128     150                                                00010000D     47
     128       0     -69      64       0                               0D     48
     128     214                                                00010000D     49
     128       0     -69       3       0                               0D     50
     128     217                                                00010000D     51
     128       0     -69       6       0                               0D     52
     128     223                                                00010000D     53
     128       0     -69      64       0                               0D     54
     128     287                                                00010000D     55
     128       0     -69       3       0                               0D     56
     502     290                                                00010000D     57
     502                       2       1                               0D     58
     502     292                                                00010000D     59
     502                       2       1                               0D     60
     504     294                                                00010001D     61
     504                       1       1                               0D     62
     504     295                                                00010001D     63
     504                       1       1                               0D     64
     406     296                                                00000000D     65
     406                       1      15                               0D     66
     406     297                                                00000000D     67
     406                       1      15                               0D     68
     314     298                                                00000200D     69
     314                       1       0                               0D     70
186,5,1,0,0,1,65;                                                      1P      1
186,7,1,0,0,1,67;                                                      3P      2
514,3,9,1,11,1,13,1;                                                   5P      3
514,3,15,1,17,1,19,1;                                                  7P      4
510,45,1,1,21;                                                         9P      5
510,47,1,1,23;                                                        11P      6
510,49,1,1,25;                                                        13P      7
510,51,1,1,27;                                                        15P      8
510,53,1,1,29;                                                        17P      9
510,55,1,1,31;                                                        19P     10
508,1,0,61,1,1,0;                                                     21P     11
508,4,0,61,1,0,0,0,61,2,0,0,0,61,3,0,0,0,61,2,1,0;                    23P     12
508,1,0,61,3,1,0;                                                     25P     13
508,1,0,63,1,0,0;                                                     27P     14
508,4,0,63,1,1,0,0,63,2,1,0,0,63,3,1,0,0,63,2,0,0;                    29P     15
508,1,0,63,3,0,0;                                                     31P     16
126,35,3,0,1,1,1,-1.27136732559809,-1.27136732559809,                 33P     17
-1.27136732559809,-1.27136732559809,-1.20818509958323,                33P     18
-1.20818509958323,-1.14885591142939,-1.14885591142939,                33P     19
-1.09112843848527,-1.09112843848527,-1.02666092019307,                33P     20
-1.02666092019307,-0.958619344977979,-0.958619344977979,              33P     21
-0.908580569595647,-0.908580569595647,-0.855688433046428,             33P     22
-0.855688433046428,-0.781930611377091,-0.781930611377091,             33P     23
-0.699283249809175,-0.699283249809175,-0.63739198251144,              33P     24
-0.63739198251144,-0.572005991668598,-0.572005991668598,              33P     25
-0.464671505749204,-0.464671505749204,-0.336541304358157,             33P     26
-0.336541304358157,-0.237846747557754,-0.237846747557754,             33P     27
-0.166278597034607,-0.166278597034607,-0.0910104944535659,            33P     28
-0.0910104944535659,0.,0.,0.,0.,1.,1.,1.,1.,1.,1.,1.,1.,1.,1.,        33P     29
1.,1.,1.,1.,1.,1.,1.,1.,1.,1.,1.,1.,1.,1.,1.,1.,1.,1.,1.,1.,1.,       33P     30
1.,1.,1.,1.,1.,-48.625,4.11378899660766D-15,-1.375,                   33P     31
-48.4760780651148,4.11378899660766D-15,-1.22607806511476,             33P     32
-48.3455949693738,-3.19303154455694D-14,-1.05616787125829,            33P     33
-48.1461567691966,-3.19303154455694D-14,-0.700101253798128,           33P     34
-48.0688079421281,-3.22683732229477D-14,-0.507107462487405,           33P     35
-47.9898845630185,-3.22683732229477D-14,-0.0945161193201302,          33P     36
-47.9892422088459,-3.1787980403236D-14,0.112058372964968,             33P     37
-48.0865020083452,-3.1787980403236D-14,0.572787483220329,             33P     38
-48.1931024374957,-2.99544450847051D-14,0.814359731436771,            33P     39
-48.5035357452708,-2.99544450847051D-14,1.27048439952817,             33P     40
-48.7158231868213,-2.7895850967717D-14,1.4881443773698,               33P     41
-49.1549367566158,-2.7895850967717D-14,1.7852486513908,               33P     42
-49.3683223682629,-2.72180342672562D-14,1.88979975992318,             33P     43
-49.8507381776541,-2.72180342672562D-14,2.0118987838658,              33P     44
-50.0677902580007,-2.86815675351317D-14,2.00755116176926,             33P     45
-50.4721429269963,-2.86815675351317D-14,1.94576318988585,             33P     46
-50.7083313401842,-3.12849468628121D-14,1.85694998322868,             33P     47
-51.1762016424629,-3.12849468628121D-14,1.57614124567443,             33P     48
-51.4081077735937,-3.4402454486655D-14,1.37069456893344,              33P     49
-51.7345454158653,-3.4402454486655D-14,0.935338446059169,             33P     50
-51.8534253846596,-3.51937532854695D-14,0.718907488970707,            33P     51
-52.0034726826221,-3.51937532854695D-14,0.225333175882913,            33P     52
-52.0061277276409,0.,0.00971612668540419,-51.9757301874091,0.,        33P     53
-0.353738781321465,-51.9070613419566,-1.77635683940025D-14,           33P     54
-0.582716449991897,-51.6628295189396,-1.77635683940025D-14,           33P     55
-1.06085294487914,-51.4681635155429,-1.77635683940025D-14,            33P     56
-1.30752487107128,-51.0412680000925,-1.77635683940025D-14,            33P     57
-1.66771999935807,-50.8220685649236,-8.88178419700125D-15,            33P     58
-1.80408631917346,-50.3980690476299,-8.88178419700125D-15,            33P     59
-1.95887671352999,-50.2039543266759,0.,-2.00007960321603,             33P     60
-49.7843020183056,0.,-1.99991604766602,-49.5634619062112,             33P     61
4.44089209850063D-15,-1.95327227747474,-49.08933062097,               33P     62
4.44089209850063D-15,-1.75760958927071,-48.8395137926242,             33P     63
3.24229405041673D-15,-1.58951379262419,-48.625,                       33P     64
3.24229405041673D-15,-1.37499999999999,-1.27136732559809,0.,0.,       33P     65
0.,0.;                                                                33P     66
126,6,3,0,0,1,0,0.,0.,0.,0.,1.,2.,3.,4.,4.,4.,4.,1.,1.,1.,1.,1.,      35P     67
1.,1.,52.,-2.22044604925031D-15,0.,52.,13.5826014981146,              35P     68
-1.38777878078145D-16,40.7478044943437,40.7478044943437,0.,           35P     69
-8.88178419700125D-15,57.6260977528282,1.04083408558608D-16,          35P     70
-40.7478044943436,40.7478044943437,1.04083408558608D-16,-52.,         35P     71
13.5826014981146,1.04083408558608D-16,-52.,1.11022302462516D-15,      35P     72
1.04083408558608D-16,0.,4.,0.,0.,0.;                                  35P     73
126,6,3,0,1,1,1,0.,0.,0.,0.,1.,2.,3.,4.,4.,4.,4.,1.,1.,1.,1.,1.,      37P     74
1.,1.,52.,-2.22044604925031D-15,0.,52.,-2.22044604925031D-15,1.,      37P     75
50.,-2.22044604925031D-15,3.,47.,-9.71445146547012D-16,               37P     76
1.38777878078145D-16,50.,-3.60822483003176D-15,-3.,52.,               37P     77
-2.42861286636753D-15,-1.,52.,-2.35922392732846D-15,                  37P     78
-1.38777878078145D-16,0.,4.,0.,0.,0.;                                 37P     79
126,35,3,0,1,1,1,-1.27136732559809,-1.27136732559809,                 39P     80
-1.27136732559809,-1.27136732559809,-1.20818509958323,                39P     81
-1.20818509958323,-1.14885591142939,-1.14885591142939,                39P     82
-1.09112843848527,-1.09112843848527,-1.02666092019307,                39P     83
-1.02666092019307,-0.958619344977979,-0.958619344977979,              39P     84
-0.908580569595647,-0.908580569595647,-0.855688433046428,             39P     85
-0.855688433046428,-0.781930611377091,-0.781930611377091,             39P     86
-0.699283249809175,-0.699283249809175,-0.63739198251144,              39P     87
-0.63739198251144,-0.572005991668598,-0.572005991668598,              39P     88
-0.464671505749204,-0.464671505749204,-0.336541304358157,             39P     89
-0.336541304358157,-0.237846747557754,-0.237846747557754,             39P     90
-0.166278597034607,-0.166278597034607,-0.0910104944535659,            39P     91
-0.0910104944535659,0.,0.,0.,0.,1.,1.,1.,1.,1.,1.,1.,1.,1.,1.,        39P     92
1.,1.,1.,1.,1.,1.,1.,1.,1.,1.,1.,1.,1.,1.,1.,1.,1.,1.,1.,1.,1.,       39P     93
1.,1.,1.,1.,1.,-48.625,4.11378899660766D-15,-1.375,                   39P     94
-48.4760780651148,4.11378899660766D-15,-1.22607806511476,             39P     95
-48.3455949693738,-3.19303154455694D-14,-1.05616787125829,            39P     96
-48.1461567691966,-3.19303154455694D-14,-0.700101253798128,           39P     97
-48.0688079421281,-3.22683732229477D-14,-0.507107462487405,           39P     98
-47.9898845630185,-3.22683732229477D-14,-0.0945161193201302,          39P     99
-47.9892422088459,-3.1787980403236D-14,0.112058372964968,             39P    100
-48.0865020083452,-3.1787980403236D-14,0.572787483220329,             39P    101
-48.1931024374957,-2.99544450847051D-14,0.814359731436771,            39P    102
-48.5035357452708,-2.99544450847051D-14,1.27048439952817,             39P    103
-48.7158231868213,-2.7895850967717D-14,1.4881443773698,               39P    104
-49.1549367566158,-2.7895850967717D-14,1.7852486513908,               39P    105
-49.3683223682629,-2.72180342672562D-14,1.88979975992318,             39P    106
-49.8507381776541,-2.72180342672562D-14,2.0118987838658,              39P    107
-50.0677902580007,-2.86815675351317D-14,2.00755116176926,             39P    108
-50.4721429269963,-2.86815675351317D-14,1.94576318988585,             39P    109
-50.7083313401842,-3.12849468628121D-14,1.85694998322868,             39P    110
-51.1762016424629,-3.12849468628121D-14,1.57614124567443,             39P    111
-51.4081077735937,-3.4402454486655D-14,1.37069456893344,              39P    112
-51.7345454158653,-3.4402454486655D-14,0.935338446059169,             39P    113
-51.8534253846596,-3.51937532854695D-14,0.718907488970707,            39P    114
-52.0034726826221,-3.51937532854695D-14,0.225333175882913,            39P    115
-52.0061277276409,0.,0.00971612668540419,-51.9757301874091,0.,        39P    116
-0.353738781321465,-51.9070613419566,-1.77635683940025D-14,           39P    117
-0.582716449991897,-51.6628295189396,-1.77635683940025D-14,           39P    118
-1.06085294487914,-51.4681635155429,-1.77635683940025D-14,            39P    119
-1.30752487107128,-51.0412680000925,-1.77635683940025D-14,            39P    120
-1.66771999935807,-50.8220685649236,-8.88178419700125D-15,            39P    121
-1.80408631917346,-50.3980690476299,-8.88178419700125D-15,            39P    122
-1.95887671352999,-50.2039543266759,0.,-2.00007960321603,             39P    123
-49.7843020183056,0.,-1.99991604766602,-49.5634619062112,             39P    124
4.44089209850063D-15,-1.95327227747474,-49.08933062097,               39P    125
4.44089209850063D-15,-1.75760958927071,-48.8395137926242,             39P    126
3.24229405041673D-15,-1.58951379262419,-48.625,                       39P    127
3.24229405041673D-15,-1.37499999999999,-1.27136732559809,0.,0.,       39P    128
0.,0.;                                                                39P    129
126,6,3,0,0,1,0,4.,4.,4.,4.,5.,6.,7.,8.,8.,8.,8.,1.,1.,1.,1.,1.,      41P    130
1.,1.,-52.,1.11022302462516D-15,1.04083408558608D-16,-52.,            41P    131
-13.5826014981146,1.04083408558608D-16,-40.7478044943437,             41P    132
-40.7478044943437,1.04083408558608D-16,8.88178419700125D-15,          41P    133
-57.6260977528282,1.04083408558608D-16,40.7478044943436,              41P    134
-40.7478044943437,1.04083408558608D-16,52.,-13.5826014981146,         41P    135
1.38777878078145D-16,52.,-2.22044604925031D-15,0.,4.,8.,0.,0.,        41P    136
0.;                                                                   41P    137
126,6,3,0,1,1,1,0.,0.,0.,0.,1.,2.,3.,4.,4.,4.,4.,1.,1.,1.,1.,1.,      43P    138
1.,1.,52.,-2.22044604925031D-15,0.,52.,-2.22044604925031D-15,1.,      43P    139
50.,-2.22044604925031D-15,3.,47.,-9.71445146547012D-16,               43P    140
1.38777878078145D-16,50.,-3.60822483003176D-15,-3.,52.,               43P    141
-2.42861286636753D-15,-1.,52.,-2.35922392732846D-15,                  43P    142
-1.38777878078145D-16,0.,4.,0.,0.,0.;                                 43P    143
128,1,1,1,1,0,0,1,0,0,-0.20218987838658,-0.20218987838658,            45P    144
0.201007960321603,0.201007960321603,-5.201,-5.201,                    45P    145
-4.79792422088459,-4.79792422088459,1.,1.,1.,1.,-52.01,0.,            45P    146
2.0218987838658,-52.01,0.,-2.01007960321603,-47.9792422088459,        45P    147
0.,2.0218987838658,-47.9792422088459,0.,-2.01007960321603,            45P    148
-0.20218987838658,0.201007960321603,-5.201,-4.79792422088459;         45P    149
128,10,6,3,3,1,1,1,0,0,0.,0.,0.,0.,1.,2.,3.,4.,5.,6.,7.,8.,8.,        47P    150
8.,8.,0.,0.,0.,0.,1.,2.,3.,4.,4.,4.,4.,1.,1.,1.,1.,1.,1.,1.,1.,       47P    151
1.,1.,1.,1.,1.,1.,1.,1.,1.,1.,1.,1.,1.,1.,1.,1.,1.,1.,1.,1.,1.,       47P    152
1.,1.,1.,1.,1.,1.,1.,1.,1.,1.,1.,1.,1.,1.,1.,1.,1.,1.,1.,1.,1.,       47P    153
1.,1.,1.,1.,1.,1.,1.,1.,1.,1.,1.,1.,1.,1.,1.,1.,1.,1.,1.,1.,1.,       47P    154
1.,1.,1.,1.,1.,1.,52.,-1.66533453693773D-15,0.,52.,                   47P    155
13.5826014981146,0.,40.7478044943437,40.7478044943437,0.,             47P    156
-8.88178419700125D-15,57.6260977528282,1.04083408558608D-16,          47P    157
-40.7478044943436,40.7478044943437,1.04083408558608D-16,              47P    158
-57.6260977528282,-4.44089209850063D-15,1.04083408558608D-16,         47P    159
-40.7478044943437,-40.7478044943437,1.04083408558608D-16,             47P    160
8.88178419700125D-15,-57.6260977528282,1.04083408558608D-16,          47P    161
40.7478044943436,-40.7478044943437,1.04083408558608D-16,52.,          47P    162
-13.5826014981146,1.38777878078145D-16,52.,                           47P    163
-2.22044604925031D-15,0.,52.,-1.66533453693773D-15,1.,52.,            47P    164
13.5826014981146,1.,40.7478044943437,40.7478044943437,1.,             47P    165
-8.88178419700125D-15,57.6260977528282,1.,-40.7478044943436,          47P    166
40.7478044943437,1.,-57.6260977528282,-4.44089209850063D-15,1.,       47P    167
-40.7478044943437,-40.7478044943437,1.,-4.44089209850063D-15,         47P    168
-57.6260977528282,1.,40.7478044943436,-40.7478044943437,1.,52.,       47P    169
-13.5826014981146,1.,52.,-2.22044604925031D-15,1.,50.,                47P    170
-1.66533453693773D-15,3.,50.,13.0601937481871,3.,                     47P    171
39.1805812445612,39.1805812445612,3.,2.22044604925031D-14,            47P    172
55.4097093777194,3.,-39.1805812445612,39.1805812445612,3.,            47P    173
-55.4097093777194,2.22044604925031D-14,3.,-39.1805812445612,          47P    174
-39.1805812445612,3.,-3.10862446895044D-14,-55.4097093777194,3.,      47P    175
39.1805812445612,-39.1805812445612,3.,50.,-13.0601937481871,3.,       47P    176
50.,-2.22044604925031D-15,3.,47.,-2.77555756156289D-16,               47P    177
1.38777878078145D-16,47.,12.2765821232958,1.38777878078145D-16,       47P    178
36.8297463698875,36.8297463698875,4.16333634234434D-16,               47P    179
-1.11022302462516D-14,52.0851268150562,5.62050406216485D-15,          47P    180
-36.8297463698875,36.8297463698876,5.62050406216485D-15,              47P    181
-52.0851268150562,-1.22124532708767D-14,5.62050406216485D-15,         47P    182
-36.8297463698876,-36.8297463698875,5.62050406216485D-15,             47P    183
4.88498130835069D-14,-52.0851268150562,5.62050406216485D-15,          47P    184
36.8297463698875,-36.8297463698876,5.62050406216485D-15,47.,          47P    185
-12.2765821232958,1.04083408558608D-15,47.,                           47P    186
-9.71445146547012D-16,1.38777878078145D-16,50.,                       47P    187
-2.77555756156289D-15,-3.,50.,13.0601937481871,-3.,                   47P    188
39.1805812445612,39.1805812445612,-3.,-4.44089209850063D-15,          47P    189
55.4097093777194,-3.,-39.1805812445612,39.1805812445613,-3.,          47P    190
-55.4097093777194,-6.66133814775094D-15,-3.,-39.1805812445612,        47P    191
-39.1805812445612,-3.,-3.77475828372553D-14,-55.4097093777194,        47P    192
-3.,39.1805812445612,-39.1805812445612,-3.,50.,                       47P    193
-13.0601937481871,-3.,50.,-3.60822483003176D-15,-3.,52.,              47P    194
-1.66533453693773D-15,-1.,52.,13.5826014981146,-1.,                   47P    195
40.7478044943437,40.7478044943437,-1.,-2.55351295663786D-14,          47P    196
57.6260977528282,-0.999999999999999,-40.7478044943437,                47P    197
40.7478044943435,-0.999999999999999,-57.6260977528282,                47P    198
-2.22044604925031D-14,-0.999999999999999,-40.7478044943436,           47P    199
-40.7478044943437,-0.999999999999999,-3.99680288865056D-14,           47P    200
-57.6260977528282,-0.999999999999999,40.7478044943437,                47P    201
-40.7478044943436,-0.999999999999999,52.,-13.5826014981146,-1.,       47P    202
52.,-2.42861286636753D-15,-1.,52.,-1.66533453693773D-15,              47P    203
-1.38777878078145D-16,52.,13.5826014981146,                           47P    204
-1.38777878078145D-16,40.7478044943437,40.7478044943437,              47P    205
-1.38777878078145D-16,-8.88178419700125D-15,57.6260977528282,         47P    206
1.11022302462516D-15,-40.7478044943437,40.7478044943437,              47P    207
1.11022302462516D-15,-57.6260977528282,-4.44089209850063D-15,         47P    208
1.11022302462516D-15,-40.7478044943437,-40.7478044943437,             47P    209
1.11022302462516D-15,8.88178419700125D-15,-57.6260977528282,          47P    210
1.11022302462516D-15,40.7478044943436,-40.7478044943437,              47P    211
1.11022302462516D-15,52.,-13.5826014981146,6.93889390390723D-16,      47P    212
52.,-2.35922392732846D-15,-1.38777878078145D-16,0.,8.,0.,4.;          47P    213
128,1,1,1,1,0,0,1,0,0,-0.201,-0.201,0.201,0.201,4.799,4.799,          49P    214
5.201,5.201,1.,1.,1.,1.,47.99,0.,2.01,47.99,0.,-2.01,52.01,0.,        49P    215
2.01,52.01,0.,-2.01,-0.201,0.201,4.799,5.201;                         49P    216
128,1,1,1,1,0,0,1,0,0,-0.20218987838658,-0.20218987838658,            51P    217
0.201007960321603,0.201007960321603,-5.201,-5.201,                    51P    218
-4.79792422088459,-4.79792422088459,1.,1.,1.,1.,-52.01,0.,            51P    219
-2.01007960321603,-52.01,0.,2.0218987838658,-47.9792422088459,        51P    220
0.,-2.01007960321603,-47.9792422088459,0.,2.0218987838658,            51P    221
-0.20218987838658,0.201007960321603,-5.201,-4.79792422088459;         51P    222
128,10,6,3,3,1,1,1,0,0,0.,0.,0.,0.,1.,2.,3.,4.,5.,6.,7.,8.,8.,        53P    223
8.,8.,0.,0.,0.,0.,1.,2.,3.,4.,4.,4.,4.,1.,1.,1.,1.,1.,1.,1.,1.,       53P    224
1.,1.,1.,1.,1.,1.,1.,1.,1.,1.,1.,1.,1.,1.,1.,1.,1.,1.,1.,1.,1.,       53P    225
1.,1.,1.,1.,1.,1.,1.,1.,1.,1.,1.,1.,1.,1.,1.,1.,1.,1.,1.,1.,1.,       53P    226
1.,1.,1.,1.,1.,1.,1.,1.,1.,1.,1.,1.,1.,1.,1.,1.,1.,1.,1.,1.,1.,       53P    227
1.,1.,1.,1.,1.,1.,52.,-1.66533453693773D-15,0.,52.,                   53P    228
13.5826014981146,0.,40.7478044943437,40.7478044943437,0.,             53P    229
-8.88178419700125D-15,57.6260977528282,1.04083408558608D-16,          53P    230
-40.7478044943436,40.7478044943437,1.04083408558608D-16,              53P    231
-57.6260977528282,-4.44089209850063D-15,1.04083408558608D-16,         53P    232
-40.7478044943437,-40.7478044943437,1.04083408558608D-16,             53P    233
8.88178419700125D-15,-57.6260977528282,1.04083408558608D-16,          53P    234
40.7478044943436,-40.7478044943437,1.04083408558608D-16,52.,          53P    235
-13.5826014981146,1.38777878078145D-16,52.,                           53P    236
-2.22044604925031D-15,0.,52.,-1.66533453693773D-15,1.,52.,            53P    237
13.5826014981146,1.,40.7478044943437,40.7478044943437,1.,             53P    238
-8.88178419700125D-15,57.6260977528282,1.,-40.7478044943436,          53P    239
40.7478044943437,1.,-57.6260977528282,-4.44089209850063D-15,1.,       53P    240
-40.7478044943437,-40.7478044943437,1.,-4.44089209850063D-15,         53P    241
-57.6260977528282,1.,40.7478044943436,-40.7478044943437,1.,52.,       53P    242
-13.5826014981146,1.,52.,-2.22044604925031D-15,1.,50.,                53P    243
-1.66533453693773D-15,3.,50.,13.0601937481871,3.,                     53P    244
39.1805812445612,39.1805812445612,3.,2.22044604925031D-14,            53P    245
55.4097093777194,3.,-39.1805812445612,39.1805812445612,3.,            53P    246
-55.4097093777194,2.22044604925031D-14,3.,-39.1805812445612,          53P    247
-39.1805812445612,3.,-3.10862446895044D-14,-55.4097093777194,3.,      53P    248
39.1805812445612,-39.1805812445612,3.,50.,-13.0601937481871,3.,       53P    249
50.,-2.22044604925031D-15,3.,47.,-2.77555756156289D-16,               53P    250
1.38777878078145D-16,47.,12.2765821232958,1.38777878078145D-16,       53P    251
36.8297463698875,36.8297463698875,4.16333634234434D-16,               53P    252
-1.11022302462516D-14,52.0851268150562,5.62050406216485D-15,          53P    253
-36.8297463698875,36.8297463698876,5.62050406216485D-15,              53P    254
-52.0851268150562,-1.22124532708767D-14,5.62050406216485D-15,         53P    255
-36.8297463698876,-36.8297463698875,5.62050406216485D-15,             53P    256
4.88498130835069D-14,-52.0851268150562,5.62050406216485D-15,          53P    257
36.8297463698875,-36.8297463698876,5.62050406216485D-15,47.,          53P    258
-12.2765821232958,1.04083408558608D-15,47.,                           53P    259
-9.71445146547012D-16,1.38777878078145D-16,50.,                       53P    260
-2.77555756156289D-15,-3.,50.,13.0601937481871,-3.,                   53P    261
39.1805812445612,39.1805812445612,-3.,-4.44089209850063D-15,          53P    262
55.4097093777194,-3.,-39.1805812445612,39.1805812445613,-3.,          53P    263
-55.4097093777194,-6.66133814775094D-15,-3.,-39.1805812445612,        53P    264
-39.1805812445612,-3.,-3.77475828372553D-14,-55.4097093777194,        53P    265
-3.,39.1805812445612,-39.1805812445612,-3.,50.,                       53P    266
-13.0601937481871,-3.,50.,-3.60822483003176D-15,-3.,52.,              53P    267
-1.66533453693773D-15,-1.,52.,13.5826014981146,-1.,                   53P    268
40.7478044943437,40.7478044943437,-1.,-2.55351295663786D-14,          53P    269
57.6260977528282,-0.999999999999999,-40.7478044943437,                53P    270
40.7478044943435,-0.999999999999999,-57.6260977528282,                53P    271
-2.22044604925031D-14,-0.999999999999999,-40.7478044943436,           53P    272
-40.7478044943437,-0.999999999999999,-3.99680288865056D-14,           53P    273
-57.6260977528282,-0.999999999999999,40.7478044943437,                53P    274
-40.7478044943436,-0.999999999999999,52.,-13.5826014981146,-1.,       53P    275
52.,-2.42861286636753D-15,-1.,52.,-1.66533453693773D-15,              53P    276
-1.38777878078145D-16,52.,13.5826014981146,                           53P    277
-1.38777878078145D-16,40.7478044943437,40.7478044943437,              53P    278
-1.38777878078145D-16,-8.88178419700125D-15,57.6260977528282,         53P    279
1.11022302462516D-15,-40.7478044943437,40.7478044943437,              53P    280
1.11022302462516D-15,-57.6260977528282,-4.44089209850063D-15,         53P    281
1.11022302462516D-15,-40.7478044943437,-40.7478044943437,             53P    282
1.11022302462516D-15,8.88178419700125D-15,-57.6260977528282,          53P    283
1.11022302462516D-15,40.7478044943436,-40.7478044943437,              53P    284
1.11022302462516D-15,52.,-13.5826014981146,6.93889390390723D-16,      53P    285
52.,-2.35922392732846D-15,-1.38777878078145D-16,0.,8.,0.,4.;          53P    286
128,1,1,1,1,0,0,1,0,0,-0.201,-0.201,0.201,0.201,4.799,4.799,          55P    287
5.201,5.201,1.,1.,1.,1.,47.99,0.,-2.01,47.99,0.,2.01,52.01,0.,        55P    288
-2.01,52.01,0.,2.01,-0.201,0.201,4.799,5.201;                         55P    289
502,2,-52.,5.55111512312578D-16,1.04083408558608D-16,52.,             57P    290
-1.66533453693773D-15,-1.38777878078145D-16;                          57P    291
502,2,-52.,5.55111512312578D-16,1.04083408558608D-16,52.,             59P    292
-1.66533453693773D-15,-1.38777878078145D-16;                          59P    293
504,3,33,57,1,57,1,35,57,2,57,1,37,57,2,57,2;                         61P    294
504,3,39,59,1,59,1,41,59,1,59,2,43,59,2,59,2;                         63P    295
406,1,6HSolid5;                                                       65P    296
406,1,6HSolid6;                                                       67P    297
314,74.9019607843137,74.9019607843137,74.9019607843137,;              69P    298
S      1G      2D     70P    298                                        T      1
