                                                                        S      1
,,13HCap insert v3,13HCap insert v3,7Hunknown,7Hunknown,32,38,7,99,15,, G      1
1.,2,2HMM,1,0.08,15H20191031.154817,0.01,10000.,7Hunknown,7Hunknown,11, G      2
0,15H20190410.062703;                                                   G      3
     186       1                                                00000000D      1
     186             -95       1       0                               0D      2
     514       2                                                00010000D      3
     514                       1       1                               0D      4
     510       3                                                00010000D      5
     510             -95       1       1                               0D      6
     510       4                                                00010000D      7
     510             -95       1       1                               0D      8
     510       5                                                00010000D      9
     510             -95       1       1                               0D     10
     510       6                                                00010000D     11
     510             -95       1       1                               0D     12
     510       7                                                00010000D     13
     510             -95       1       1                               0D     14
     510       8                                                00010000D     15
     510             -95       1       1                               0D     16
     510       9                                                00010000D     17
     510             -95       1       1                               0D     18
     510      10                                                00010000D     19
     510             -95       1       1                               0D     20
     508      11                                                00010000D     21
     508                       1       1                               0D     22
     508      12                                                00010000D     23
     508                       1       1                               0D     24
     508      13                                                00010000D     25
     508                       1       1                               0D     26
     508      14                                                00010000D     27
     508                       1       1                               0D     28
     508      15                                                00010000D     29
     508                       1       1                               0D     30
     508      16                                                00010000D     31
     508                       2       1                               0D     32
     508      18                                                00010000D     33
     508                       1       1                               0D     34
     508      19                                                00010000D     35
     508                       1       1                               0D     36
     508      20                                                00010000D     37
     508                       2       1                               0D     38
     508      22                                                00010000D     39
     508                       1       1                               0D     40
     126      23                                                00010000D     41
     126       0              10       0                               0D     42
     126      33                                                00010000D     43
     126       0               4       0                               0D     44
     126      37                                                00010000D     45
     126       0              10       0                               0D     46
     126      47                                                00010000D     47
     126       0               3       0                               0D     48
     126      50                                                00010000D     49
     126       0               9       0                               0D     50
     126      59                                                00010000D     51
     126       0              10       0                               0D     52
     126      69                                                00010000D     53
     126       0               4       0                               0D     54
     126      73                                                00010000D     55
     126       0               9       0                               0D     56
     126      82                                                00010000D     57
     126       0               6       0                               0D     58
     126      88                                                00010000D     59
     126       0               4       0                               0D     60
     126      92                                                00010000D     61
     126       0               5       0                               0D     62
     126      97                                                00010000D     63
     126       0               6       0                               0D     64
     126     103                                                00010000D     65
     126       0               5       0                               0D     66
     126     108                                                00010000D     67
     126       0              10       0                               0D     68
     126     118                                                00010000D     69
     126       0               2       0                               0D     70
     126     120                                                00010000D     71
     126       0               3       0                               0D     72
     128     123                                                00010000D     73
     128       0     -95      17       0                               0D     74
     128     140                                                00010000D     75
     128       0     -95      13       0                               0D     76
     128     153                                                00010000D     77
     128       0     -95       3       0                               0D     78
     128     156                                                00010000D     79
     128       0     -95      16       0                               0D     80
     128     172                                                00010000D     81
     128       0     -95      19       0                               0D     82
     128     191                                                00010000D     83
     128       0     -95       3       0                               0D     84
     128     194                                                00010000D     85
     128       0     -95      11       0                               0D     86
     128     205                                                00010000D     87
     128       0     -95      18       0                               0D     88
     502     223                                                00010000D     89
     502                       5       1                               0D     90
     504     228                                                00010001D     91
     504                       4       1                               0D     92
     406     232                                                00000000D     93
     406                       1      15                               0D     94
     314     233                                                00000200D     95
     314                       2       0                               0D     96
186,3,1,0,0,1,93;                                                      1P      1
514,8,5,1,7,1,9,1,11,1,13,1,15,1,17,1,19,1;                            3P      2
510,73,1,1,21;                                                         5P      3
510,75,1,1,23;                                                         7P      4
510,77,2,1,25,27;                                                      9P      5
510,79,1,1,29;                                                        11P      6
510,81,1,1,31;                                                        13P      7
510,83,2,1,33,35;                                                     15P      8
510,85,1,1,37;                                                        17P      9
510,87,1,1,39;                                                        19P     10
508,4,0,91,1,1,0,0,91,2,1,0,0,91,3,1,0,0,91,2,0,0;                    21P     11
508,4,0,91,1,0,0,0,91,4,1,0,0,91,5,0,0,0,91,4,0,0;                    23P     12
508,1,0,91,6,0,0;                                                     25P     13
508,1,0,91,3,0,0;                                                     27P     14
508,4,0,91,5,1,0,0,91,7,1,0,0,91,8,0,0,0,91,7,0,0;                    29P     15
508,6,0,91,9,1,0,0,91,10,1,0,0,91,11,1,0,0,91,12,1,0,0,91,10,0,       31P     16
0,0,91,13,1,0;                                                        31P     17
508,1,0,91,14,0,0;                                                    33P     18
508,2,0,91,9,0,0,0,91,13,0,0;                                         35P     19
508,5,0,91,12,0,0,0,91,15,1,0,0,91,8,1,0,0,91,15,0,0,0,91,11,0,       37P     20
0;                                                                    37P     21
508,4,0,91,14,1,0,0,91,16,1,0,0,91,6,1,0,0,91,16,0,0;                 39P     22
126,8,2,0,1,0,0,-3.14159265358979,-3.14159265358979,                  41P     23
-3.14159265358979,-1.5707963267949,-1.5707963267949,0.,0.,            41P     24
1.5707963267949,1.5707963267949,3.14159265358979,                     41P     25
3.14159265358979,3.14159265358979,1.,0.707106781186548,1.,            41P     26
0.707106781186548,1.,0.707106781186548,1.,0.707106781186548,1.,       41P     27
22.,-1.46957615897682D-15,12.,22.,-12.,12.,22.,-12.,                  41P     28
-7.34788079488412D-16,22.,-12.,-12.,22.,0.,-12.,22.,12.,-12.,         41P     29
22.,12.,-7.34788079488412D-16,22.,12.,12.,22.,                        41P     30
1.46957615897682D-15,12.,-3.14159265358979,3.14159265358979,0.,       41P     31
0.,0.;                                                                41P     32
126,2,2,0,0,0,0,-3.14159265358979,-3.14159265358979,                  43P     33
-3.14159265358979,-1.5707963267949,-1.5707963267949,                  43P     34
-1.5707963267949,1.,0.707106781186548,1.,22.,0.,12.,24.,0.,12.,       43P     35
24.,0.,14.,-3.14159265358979,-1.5707963267949,0.,0.,0.;               43P     36
126,8,2,0,1,0,0,-3.14159265358979,-3.14159265358979,                  45P     37
-3.14159265358979,-1.5707963267949,-1.5707963267949,0.,0.,            45P     38
1.5707963267949,1.5707963267949,3.14159265358979,                     45P     39
3.14159265358979,3.14159265358979,1.,0.707106781186548,1.,            45P     40
0.707106781186548,1.,0.707106781186548,1.,0.707106781186548,1.,       45P     41
24.,1.71450551880629D-15,14.,24.,14.,14.,24.,14.,                     45P     42
-8.57252759403147D-16,24.,14.,-14.,24.,0.,-14.,24.,-14.,-14.,         45P     43
24.,-14.,-8.57252759403147D-16,24.,-14.,14.,24.,                      45P     44
-1.71450551880629D-15,14.,-3.14159265358979,3.14159265358979,0.,      45P     45
0.,0.;                                                                45P     46
126,1,1,0,0,1,0,-1.83333333333333,-1.83333333333333,                  47P     47
-0.416666666666667,-0.416666666666667,1.,1.,22.,0.,12.,5.,0.,         47P     48
12.,-1.83333333333333,-0.416666666666667,0.,0.,0.;                    47P     49
126,8,2,0,1,0,0,-3.14159265358979,-3.14159265358979,                  49P     50
-3.14159265358979,-1.5707963267949,-1.5707963267949,0.,0.,            49P     51
1.5707963267949,1.5707963267949,3.14159265358979,                     49P     52
3.14159265358979,3.14159265358979,1.,0.707106781186548,1.,            49P     53
0.707106781186548,1.,0.707106781186548,1.,0.707106781186548,1.,       49P     54
5.,1.46957615897682D-15,12.,5.,12.,12.,5.,12.,                        49P     55
-7.34788079488412D-16,5.,12.,-12.,5.,0.,-12.,5.,-12.,-12.,5.,         49P     56
-12.,-7.34788079488412D-16,5.,-12.,12.,5.,-1.46957615897682D-15,      49P     57
12.,-3.14159265358979,3.14159265358979,0.,0.,0.;                      49P     58
126,8,2,0,1,0,0,-3.14159265358979,-3.14159265358979,                  51P     59
-3.14159265358979,-1.5707963267949,-1.5707963267949,0.,0.,            51P     60
1.5707963267949,1.5707963267949,3.14159265358979,                     51P     61
3.14159265358979,3.14159265358979,1.,0.707106781186547,1.,            51P     62
0.707106781186548,1.,0.707106781186548,1.,0.707106781186547,1.,       51P     63
24.,-2.02066721859313D-15,16.5,24.,-16.5,16.5,24.,-16.5,              51P     64
-1.01033360929657D-15,24.,-16.5,-16.5,24.,0.,-16.5,24.,16.5,          51P     65
-16.5,24.,16.5,-1.01033360929657D-15,24.,16.5,16.5,24.,               51P     66
2.02066721859313D-15,16.5,-3.14159265358979,3.14159265358979,0.,      51P     67
0.,0.;                                                                51P     68
126,1,1,0,0,1,0,-0.244780218506114,-0.244780218506114,                53P     69
0.244780218506114,0.244780218506114,1.,1.,5.,0.,12.,                  53P     70
-1.11022302462516D-15,0.,10.,-0.244780218506114,                      53P     71
0.244780218506114,0.,0.,0.;                                           53P     72
126,8,2,0,1,0,0,-3.14159265358979,-3.14159265358979,                  55P     73
-3.14159265358979,-1.5707963267949,-1.5707963267949,0.,0.,            55P     74
1.5707963267949,1.5707963267949,3.14159265358979,                     55P     75
3.14159265358979,3.14159265358979,1.,0.707106781186547,1.,            55P     76
0.707106781186548,1.,0.707106781186548,1.,0.707106781186547,1.,       55P     77
0.,1.22464679914735D-15,10.,0.,10.,10.,0.,10.,                        55P     78
-6.12323399573677D-16,0.,10.,-10.,0.,0.,-10.,0.,-10.,-10.,0.,         55P     79
-10.,-6.12323399573677D-16,0.,-10.,10.,0.,-1.22464679914735D-15,      55P     80
10.,-3.14159265358979,3.14159265358979,0.,0.,0.;                      55P     81
126,4,2,0,0,0,0,-3.14159265358979,-3.14159265358979,                  57P     82
-3.14159265358979,-1.5707963267949,-1.5707963267949,0.,0.,0.,1.,      57P     83
0.707106781186547,1.,0.707106781186547,1.,27.,                        57P     84
-1.40834381901946D-15,11.5,27.,-11.5,11.5,27.,-11.5,                  57P     85
-7.04171909509728D-16,27.,-11.5,-11.5,27.,0.,-11.5,                   57P     86
-3.14159265358979,0.,0.,0.,0.;                                        57P     87
126,2,2,0,0,0,0,1.5707963267949,1.5707963267949,1.5707963267949,      59P     88
3.14159265358979,3.14159265358979,3.14159265358979,1.,                59P     89
0.707106781186553,1.,27.,0.,-11.5,27.,0.,-10.,25.5,0.,-10.,           59P     90
1.5707963267949,3.14159265358979,0.,0.,0.;                            59P     91
126,4,2,0,0,0,0,0.,0.,0.,1.5707963267949,1.5707963267949,             61P     92
3.14159265358979,3.14159265358979,3.14159265358979,1.,                61P     93
0.707106781186548,1.,0.707106781186547,1.,25.5,0.,-10.,25.5,          61P     94
-10.,-10.,25.5,-10.,-6.12323399573677D-16,25.5,-10.,10.,25.5,         61P     95
-1.22464679914735D-15,10.,0.,3.14159265358979,0.,0.,0.;               61P     96
126,4,2,0,0,0,0,-3.14159265358979,-3.14159265358979,                  63P     97
-3.14159265358979,-1.5707963267949,-1.5707963267949,0.,0.,0.,1.,      63P     98
0.707106781186547,1.,0.707106781186548,1.,25.5,                       63P     99
1.22464679914735D-15,10.,25.5,10.,10.,25.5,10.,                       63P    100
-6.12323399573677D-16,25.5,10.,-10.,25.5,0.,-10.,                     63P    101
-3.14159265358979,0.,0.,0.,0.;                                        63P    102
126,4,2,0,0,0,0,0.,0.,0.,1.5707963267949,1.5707963267949,             65P    103
3.14159265358979,3.14159265358979,3.14159265358979,1.,                65P    104
0.707106781186547,1.,0.707106781186547,1.,27.,0.,-11.5,27.,11.5,      65P    105
-11.5,27.,11.5,-7.04171909509728D-16,27.,11.5,11.5,27.,               65P    106
1.40834381901946D-15,11.5,0.,3.14159265358979,0.,0.,0.;               65P    107
126,8,2,0,1,0,0,-3.14159265358979,-3.14159265358979,                  67P    108
-3.14159265358979,-1.5707963267949,-1.5707963267949,0.,0.,            67P    109
1.5707963267949,1.5707963267949,3.14159265358979,                     67P    110
3.14159265358979,3.14159265358979,1.,0.707106781186548,1.,            67P    111
0.707106781186548,1.,0.707106781186548,1.,0.707106781186548,1.,       67P    112
27.,1.65327317884893D-15,13.5,27.,13.5,13.5,27.,13.5,                 67P    113
-8.26636589424464D-16,27.,13.5,-13.5,27.,0.,-13.5,27.,-13.5,          67P    114
-13.5,27.,-13.5,-8.26636589424464D-16,27.,-13.5,13.5,27.,             67P    115
-1.65327317884893D-15,13.5,-3.14159265358979,3.14159265358979,        67P    116
0.,0.,0.;                                                             67P    117
126,1,1,0,0,1,0,-2.55,-2.55,0.,0.,1.,1.,25.5,0.,10.,0.,0.,10.,        69P    118
-2.55,0.,0.,0.,0.;                                                    69P    119
126,2,2,0,0,0,0,-1.5707963267949,-1.5707963267949,                    71P    120
-1.5707963267949,0.,0.,0.,1.,0.707106781186549,1.,27.,0.,13.5,        71P    121
27.,0.,16.5,24.,0.,16.5,-1.5707963267949,0.,0.,0.,0.;                 71P    122
128,2,8,2,2,0,1,0,0,1,1.5707963267949,1.5707963267949,                73P    123
1.5707963267949,3.14159265358979,3.14159265358979,                    73P    124
3.14159265358979,-3.14159265358979,-3.14159265358979,                 73P    125
-3.14159265358979,-1.5707963267949,-1.5707963267949,0.,0.,            73P    126
1.5707963267949,1.5707963267949,3.14159265358979,                     73P    127
3.14159265358979,3.14159265358979,1.,0.707106781186548,1.,            73P    128
0.707106781186548,0.5,0.707106781186548,1.,0.707106781186548,1.,      73P    129
0.707106781186548,0.5,0.707106781186548,1.,0.707106781186548,1.,      73P    130
0.707106781186548,0.5,0.707106781186548,1.,0.707106781186548,1.,      73P    131
0.707106781186548,0.5,0.707106781186548,1.,0.707106781186548,1.,      73P    132
24.,0.,14.,24.,0.,12.,22.,0.,12.,24.,-14.,14.,24.,-12.,12.,22.,       73P    133
-12.,12.,24.,-14.,0.,24.,-12.,0.,22.,-12.,0.,24.,-14.,-14.,24.,       73P    134
-12.,-12.,22.,-12.,-12.,24.,0.,-14.,24.,0.,-12.,22.,0.,-12.,24.,      73P    135
14.,-14.,24.,12.,-12.,22.,12.,-12.,24.,14.,0.,24.,12.,0.,22.,         73P    136
12.,0.,24.,14.,14.,24.,12.,12.,22.,12.,12.,24.,0.,14.,24.,0.,         73P    137
12.,22.,0.,12.,1.5707963267949,3.14159265358979,                      73P    138
-3.14159265358979,3.14159265358979;                                   73P    139
128,1,8,1,2,0,1,0,0,1,0.416666666666667,0.416666666666667,            75P    140
1.83333333333333,1.83333333333333,-3.14159265358979,                  75P    141
-3.14159265358979,-3.14159265358979,-1.5707963267949,                 75P    142
-1.5707963267949,0.,0.,1.5707963267949,1.5707963267949,               75P    143
3.14159265358979,3.14159265358979,3.14159265358979,1.,1.,             75P    144
0.707106781186548,0.707106781186548,1.,1.,0.707106781186548,          75P    145
0.707106781186548,1.,1.,0.707106781186548,0.707106781186548,1.,       75P    146
1.,0.707106781186548,0.707106781186548,1.,1.,22.,0.,12.,5.,0.,        75P    147
12.,22.,-12.,12.,5.,-12.,12.,22.,-12.,0.,5.,-12.,0.,22.,-12.,         75P    148
-12.,5.,-12.,-12.,22.,0.,-12.,5.,0.,-12.,22.,12.,-12.,5.,12.,         75P    149
-12.,22.,12.,0.,5.,12.,0.,22.,12.,12.,5.,12.,12.,22.,0.,12.,5.,       75P    150
0.,12.,0.416666666666667,1.83333333333333,-3.14159265358979,          75P    151
3.14159265358979;                                                     75P    152
128,1,1,1,1,0,0,1,0,0,-1.651,-1.651,1.651,1.651,-1.651,-1.651,        77P    153
1.651,1.651,1.,1.,1.,1.,24.,-16.51,-16.51,24.,-16.51,16.51,24.,       77P    154
16.51,-16.51,24.,16.51,16.51,-1.651,1.651,-1.651,1.651;               77P    155
128,1,8,1,2,0,1,0,0,1,-0.244780218506114,-0.244780218506114,          79P    156
0.244780218506114,0.244780218506114,-3.14159265358979,                79P    157
-3.14159265358979,-3.14159265358979,-1.5707963267949,                 79P    158
-1.5707963267949,0.,0.,1.5707963267949,1.5707963267949,               79P    159
3.14159265358979,3.14159265358979,3.14159265358979,1.,1.,             79P    160
0.707106781186548,0.707106781186548,1.,1.,0.707106781186548,          79P    161
0.707106781186548,1.,1.,0.707106781186548,0.707106781186548,1.,       79P    162
1.,0.707106781186548,0.707106781186548,1.,1.,5.,0.,12.,               79P    163
-1.11022302462516D-15,0.,10.,5.,-12.,12.,-1.11022302462516D-15,       79P    164
-10.,10.,5.,-12.,0.,-1.11022302462516D-15,-10.,0.,5.,-12.,-12.,       79P    165
-1.11022302462516D-15,-10.,-10.,5.,0.,-12.,                           79P    166
-1.11022302462516D-15,0.,-10.,5.,12.,-12.,-1.11022302462516D-15,      79P    167
10.,-10.,5.,12.,0.,-1.11022302462516D-15,10.,0.,5.,12.,12.,           79P    168
-1.11022302462516D-15,10.,10.,5.,0.,12.,-1.11022302462516D-15,        79P    169
0.,10.,-0.244780218506114,0.244780218506114,-3.14159265358979,        79P    170
3.14159265358979;                                                     79P    171
128,2,8,2,2,0,1,0,0,1,-3.14159265358979,-3.14159265358979,            81P    172
-3.14159265358979,-1.5707963267949,-1.5707963267949,                  81P    173
-1.5707963267949,-3.14159265358979,-3.14159265358979,                 81P    174
-3.14159265358979,-1.5707963267949,-1.5707963267949,0.,0.,            81P    175
1.5707963267949,1.5707963267949,3.14159265358979,                     81P    176
3.14159265358979,3.14159265358979,1.,0.707106781186553,1.,            81P    177
0.707106781186548,0.500000000000004,0.707106781186548,1.,             81P    178
0.707106781186553,1.,0.707106781186548,0.500000000000004,             81P    179
0.707106781186548,1.,0.707106781186553,1.,0.707106781186548,          81P    180
0.500000000000004,0.707106781186548,1.,0.707106781186553,1.,          81P    181
0.707106781186548,0.500000000000004,0.707106781186548,1.,             81P    182
0.707106781186553,1.,27.,0.,-11.5,27.,0.,-10.,25.5,0.,-10.,27.,       81P    183
-11.5,-11.5,27.,-10.,-10.,25.5,-10.,-10.,27.,-11.5,0.,27.,-10.,       81P    184
0.,25.5,-10.,0.,27.,-11.5,11.5,27.,-10.,10.,25.5,-10.,10.,27.,        81P    185
0.,11.5,27.,0.,10.,25.5,0.,10.,27.,11.5,11.5,27.,10.,10.,25.5,        81P    186
10.,10.,27.,11.5,0.,27.,10.,0.,25.5,10.,0.,27.,11.5,-11.5,27.,        81P    187
10.,-10.,25.5,10.,-10.,27.,0.,-11.5,27.,0.,-10.,25.5,0.,-10.,         81P    188
-3.14159265358979,-1.5707963267949,-3.14159265358979,                 81P    189
3.14159265358979;                                                     81P    190
128,1,1,1,1,0,0,1,0,0,-1.351,-1.351,1.351,1.351,-1.351,-1.351,        83P    191
1.351,1.351,1.,1.,1.,1.,27.,-13.51,13.51,27.,-13.51,-13.51,27.,       83P    192
13.51,13.51,27.,13.51,-13.51,-1.351,1.351,-1.351,1.351;               83P    193
128,1,8,1,2,0,1,0,0,1,0.,0.,2.55,2.55,-3.14159265358979,              85P    194
-3.14159265358979,-3.14159265358979,-1.5707963267949,                 85P    195
-1.5707963267949,0.,0.,1.5707963267949,1.5707963267949,               85P    196
3.14159265358979,3.14159265358979,3.14159265358979,1.,1.,             85P    197
0.707106781186548,0.707106781186548,1.,1.,0.707106781186548,          85P    198
0.707106781186548,1.,1.,0.707106781186548,0.707106781186548,1.,       85P    199
1.,0.707106781186548,0.707106781186548,1.,1.,0.,0.,10.,25.5,0.,       85P    200
10.,0.,-10.,10.,25.5,-10.,10.,0.,-10.,0.,25.5,-10.,0.,0.,-10.,        85P    201
-10.,25.5,-10.,-10.,0.,0.,-10.,25.5,0.,-10.,0.,10.,-10.,25.5,         85P    202
10.,-10.,0.,10.,0.,25.5,10.,0.,0.,10.,10.,25.5,10.,10.,0.,0.,         85P    203
10.,25.5,0.,10.,0.,2.55,-3.14159265358979,3.14159265358979;           85P    204
128,2,8,2,2,0,1,0,0,1,0.,0.,0.,1.5707963267949,1.5707963267949,       87P    205
1.5707963267949,-3.14159265358979,-3.14159265358979,                  87P    206
-3.14159265358979,-1.5707963267949,-1.5707963267949,0.,0.,            87P    207
1.5707963267949,1.5707963267949,3.14159265358979,                     87P    208
3.14159265358979,3.14159265358979,1.,0.707106781186549,1.,            87P    209
0.707106781186548,0.500000000000001,0.707106781186548,1.,             87P    210
0.707106781186549,1.,0.707106781186548,0.500000000000001,             87P    211
0.707106781186548,1.,0.707106781186549,1.,0.707106781186548,          87P    212
0.500000000000001,0.707106781186548,1.,0.707106781186549,1.,          87P    213
0.707106781186548,0.500000000000001,0.707106781186548,1.,             87P    214
0.707106781186549,1.,27.,0.,13.5,27.,0.,16.5,24.,0.,16.5,27.,         87P    215
-13.5,13.5,27.,-16.5,16.5,24.,-16.5,16.5,27.,-13.5,0.,27.,-16.5,      87P    216
0.,24.,-16.5,0.,27.,-13.5,-13.5,27.,-16.5,-16.5,24.,-16.5,-16.5,      87P    217
27.,0.,-13.5,27.,0.,-16.5,24.,0.,-16.5,27.,13.5,-13.5,27.,16.5,       87P    218
-16.5,24.,16.5,-16.5,27.,13.5,0.,27.,16.5,0.,24.,16.5,0.,27.,         87P    219
13.5,13.5,27.,16.5,16.5,24.,16.5,16.5,27.,0.,13.5,27.,0.,16.5,        87P    220
24.,0.,16.5,0.,1.5707963267949,-3.14159265358979,                     87P    221
3.14159265358979;                                                     87P    222
502,10,22.,-1.46957615897682D-15,12.,24.,1.71450551880629D-15,        89P    223
14.,5.,1.46957615897682D-15,12.,24.,-2.02066721859313D-15,16.5,       89P    224
0.,-1.22464679914735D-15,10.,27.,-1.40834381901946D-15,11.5,27.,      89P    225
0.,-11.5,25.5,0.,-10.,25.5,1.22464679914735D-15,10.,27.,              89P    226
1.65327317884893D-15,13.5;                                            89P    227
504,16,41,89,1,89,1,43,89,1,89,2,45,89,2,89,2,47,89,1,89,3,49,        91P    228
89,3,89,3,51,89,4,89,4,53,89,3,89,5,55,89,5,89,5,57,89,6,89,7,        91P    229
59,89,7,89,8,61,89,8,89,9,63,89,9,89,8,65,89,7,89,6,67,89,10,89,      91P    230
10,69,89,9,89,5,71,89,10,89,4;                                        91P    231
406,1,5HBody1;                                                        93P    232
314,62.7450980392157,62.7450980392157,62.7450980392157,13HSteel       95P    233
- Satin;                                                              95P    234
S      1G      3D     96P    234                                        T      1
