                                                                        S      1
,,11HDuralite v4,11HDuralite v4,7Hunknown,7Hunknown,32,38,7,99,15,,1.,2,G      1
2HMM,1,0.08,15H20191031.154751,0.01,10000.,7Hunknown,7Hunknown,11,0,15H2G      2
0190916.102108;                                                         G      3
     186       1                                                00000000D      1
     186            -105       1       0                               0D      2
     514       2                                                00010000D      3
     514                       1       1                               0D      4
     510       3                                                00010000D      5
     510            -105       1       1                               0D      6
     510       4                                                00010000D      7
     510            -105       1       1                               0D      8
     510       5                                                00010000D      9
     510            -105       1       1                               0D     10
     510       6                                                00010000D     11
     510            -105       1       1                               0D     12
     510       7                                                00010000D     13
     510            -105       1       1                               0D     14
     510       8                                                00010000D     15
     510            -105       1       1                               0D     16
     510       9                                                00010000D     17
     510            -105       1       1                               0D     18
     510      10                                                00010000D     19
     510            -105       1       1                               0D     20
     510      11                                                00010000D     21
     510            -105       1       1                               0D     22
     508      12                                                00010000D     23
     508                       1       1                               0D     24
     508      13                                                00010000D     25
     508                       1       1                               0D     26
     508      14                                                00010000D     27
     508                       1       1                               0D     28
     508      15                                                00010000D     29
     508                       1       1                               0D     30
     508      16                                                00010000D     31
     508                       1       1                               0D     32
     508      17                                                00010000D     33
     508                       2       1                               0D     34
     508      19                                                00010000D     35
     508                       1       1                               0D     36
     508      20                                                00010000D     37
     508                       1       1                               0D     38
     508      21                                                00010000D     39
     508                       1       1                               0D     40
     508      22                                                00010000D     41
     508                       1       1                               0D     42
     508      23                                                00010000D     43
     508                       2       1                               0D     44
     126      25                                                00010000D     45
     126       0               9       0                               0D     46
     126      34                                                00010000D     47
     126       0               4       0                               0D     48
     126      38                                                00010000D     49
     126       0               9       0                               0D     50
     126      47                                                00010000D     51
     126       0              10       0                               0D     52
     126      57                                                00010000D     53
     126       0               3       0                               0D     54
     126      60                                                00010000D     55
     126       0              12       0                               0D     56
     126      72                                                00010000D     57
     126       0               5       0                               0D     58
     126      77                                                00010000D     59
     126       0              15       0                               0D     60
     126      92                                                00010000D     61
     126       0              10       0                               0D     62
     126     102                                                00010000D     63
     126       0               5       0                               0D     64
     126     107                                                00010000D     65
     126       0               5       0                               0D     66
     126     112                                                00010000D     67
     126       0               5       0                               0D     68
     126     117                                                00010000D     69
     126       0               7       0                               0D     70
     126     124                                                00010000D     71
     126       0               4       0                               0D     72
     126     128                                                00010000D     73
     126       0              10       0                               0D     74
     126     138                                                00010000D     75
     126       0              10       0                               0D     76
     126     148                                                00010000D     77
     126       0               2       0                               0D     78
     126     150                                                00010000D     79
     126       0               2       0                               0D     80
     128     152                                                00010000D     81
     128       0    -105      16       0                               0D     82
     128     168                                                00010000D     83
     128       0    -105      13       0                               0D     84
     128     181                                                00010000D     85
     128       0    -105      30       0                               0D     86
     128     211                                                00010000D     87
     128       0    -105       3       0                               0D     88
     128     214                                                00010000D     89
     128       0    -105      30       0                               0D     90
     128     244                                                00010000D     91
     128       0    -105      17       0                               0D     92
     128     261                                                00010000D     93
     128       0    -105       3       0                               0D     94
     128     264                                                00010000D     95
     128       0    -105      12       0                               0D     96
     128     276                                                00010000D     97
     128       0    -105      12       0                               0D     98
     502     288                                                00010000D     99
     502                       6       1                               0D    100
     504     294                                                00010001D    101
     504                       4       1                               0D    102
     406     298                                                00000000D    103
     406                       1      15                               0D    104
     314     299                                                00000200D    105
     314                       2       0                               0D    106
186,3,1,0,0,1,103;                                                     1P      1
514,9,5,1,7,1,9,1,11,1,13,1,15,1,17,1,19,1,21,1;                       3P      2
510,81,1,1,23;                                                         5P      3
510,83,1,1,25;                                                         7P      4
510,85,1,1,27;                                                         9P      5
510,87,2,1,29,31;                                                     11P      6
510,89,1,1,33;                                                        13P      7
510,91,1,1,35;                                                        15P      8
510,93,2,1,37,39;                                                     17P      9
510,95,1,1,41;                                                        19P     10
510,97,1,1,43;                                                        21P     11
508,4,0,101,1,1,0,0,101,2,1,0,0,101,3,0,0,0,101,2,0,0;                23P     12
508,4,0,101,4,0,0,0,101,5,1,0,0,101,1,0,0,0,101,5,0,0;                25P     13
508,4,0,101,6,1,0,0,101,7,1,0,0,101,8,1,0,0,101,7,0,0;                27P     14
508,1,0,101,9,1,0;                                                    29P     15
508,1,0,101,6,0,0;                                                    31P     16
508,6,0,101,10,0,0,0,101,11,0,0,0,101,12,1,0,0,101,8,0,0,0,101,       33P     17
12,0,0,0,101,13,0,0;                                                  33P     18
508,4,0,101,4,1,0,0,101,14,1,0,0,101,15,1,0,0,101,14,0,0;             35P     19
508,1,0,101,16,0,0;                                                   37P     20
508,1,0,101,15,0,0;                                                   39P     21
508,4,0,101,9,0,0,0,101,17,1,0,0,101,16,1,0,0,101,17,0,0;             41P     22
508,6,0,101,10,1,0,0,101,18,1,0,0,101,3,1,0,0,101,18,0,0,0,101,       43P     23
13,1,0,0,101,11,1,0;                                                  43P     24
126,8,2,0,1,0,0,-3.14159265358979,-3.14159265358979,                  45P     25
-3.14159265358979,-1.5707963267949,-1.5707963267949,0.,0.,            45P     26
1.5707963267949,1.5707963267949,3.14159265358979,                     45P     27
3.14159265358979,3.14159265358979,1.,0.707106781186548,1.,            45P     28
0.707106781186548,1.,0.707106781186548,1.,0.707106781186548,1.,       45P     29
-12.,1.46957615897682D-15,5.,-12.,12.,5.,7.34788079488412D-16,        45P     30
12.,5.,12.,12.,5.,12.,0.,5.,12.,-12.,5.,7.34788079488412D-16,         45P     31
-12.,5.,-12.,-12.,5.,-12.,-1.46957615897682D-15,5.,                   45P     32
-3.14159265358979,3.14159265358979,0.,0.,0.;                          45P     33
126,1,1,0,0,1,0,-0.244780218506114,-0.244780218506114,                47P     34
0.244780218506114,0.244780218506114,1.,1.,-12.,0.,5.,-10.,0.,         47P     35
-5.55111512312578D-16,-0.244780218506114,0.244780218506114,0.,        47P     36
0.,0.;                                                                47P     37
126,8,2,0,1,0,0,-3.14159265358979,-3.14159265358979,                  49P     38
-3.14159265358979,-1.5707963267949,-1.5707963267949,0.,0.,            49P     39
1.5707963267949,1.5707963267949,3.14159265358979,                     49P     40
3.14159265358979,3.14159265358979,1.,0.707106781186548,1.,            49P     41
0.707106781186548,1.,0.707106781186548,1.,0.707106781186548,1.,       49P     42
-10.,1.22464679914735D-15,0.,-10.,10.,0.,6.12323399573677D-16,        49P     43
10.,0.,10.,10.,0.,10.,0.,0.,10.,-10.,0.,6.12323399573677D-16,         49P     44
-10.,0.,-10.,-10.,0.,-10.,-1.22464679914735D-15,0.,                   49P     45
-3.14159265358979,3.14159265358979,0.,0.,0.;                          49P     46
126,8,2,0,1,0,0,-3.14159265358979,-3.14159265358979,                  51P     47
-3.14159265358979,-1.5707963267949,-1.5707963267949,0.,0.,            51P     48
1.5707963267949,1.5707963267949,3.14159265358979,                     51P     49
3.14159265358979,3.14159265358979,1.,0.707106781186548,1.,            51P     50
0.707106781186548,1.,0.707106781186548,1.,0.707106781186548,1.,       51P     51
-12.,-1.46957615897682D-15,22.,-12.,-12.,22.,                         51P     52
7.34788079488412D-16,-12.,22.,12.,-12.,22.,12.,0.,22.,12.,12.,        51P     53
22.,7.34788079488412D-16,12.,22.,-12.,12.,22.,-12.,                   51P     54
1.46957615897682D-15,22.,-3.14159265358979,3.14159265358979,0.,       51P     55
0.,0.;                                                                51P     56
126,1,1,0,0,1,0,-1.83333333333333,-1.83333333333333,                  53P     57
-0.416666666666667,-0.416666666666667,1.,1.,-12.,0.,22.,-12.,0.,      53P     58
5.,-1.83333333333333,-0.416666666666667,0.,0.,0.;                     53P     59
126,8,2,0,1,0,0,-3.14159265358979,-3.14159265358979,                  55P     60
-3.14159265358979,-1.5707963267949,-1.5707963267949,0.,0.,            55P     61
1.5707963267949,1.5707963267949,3.14159265358979,                     55P     62
3.14159265358979,3.14159265358979,1.,0.707106781186548,1.,            55P     63
0.707106781186548,1.,0.707106781186548,1.,0.707106781186548,1.,       55P     64
12.0322378646689,1.47352415875464D-15,27.,12.0322378646689,           55P     65
12.0322378646689,27.,-7.36762079377319D-16,12.0322378646689,27.,      55P     66
-12.0322378646689,12.0322378646689,27.,-12.0322378646689,0.,27.,      55P     67
-12.0322378646689,-12.0322378646689,27.,-7.36762079377319D-16,        55P     68
-12.0322378646689,27.,12.0322378646689,-12.0322378646689,27.,         55P     69
12.0322378646689,-1.47352415875464D-15,27.,-3.14159265358979,         55P     70
3.14159265358979,0.,0.,0.;                                            55P     71
126,2,2,0,0,0,0,1.5707963267949,1.5707963267949,1.5707963267949,      57P     72
2.8397690784625,2.8397690784625,2.8397690784625,1.,                   57P     73
0.805376260573386,1.,12.0322378646689,0.,27.,10.9282248197038,        57P     74
0.,27.,10.6000438681553,0.,25.9458927632856,1.5707963267949,          57P     75
2.8397690784625,0.,0.,0.;                                             57P     76
126,8,2,0,1,0,0,-3.14159265358979,-3.14159265358979,                  59P     77
-3.14159265358979,-1.5707963267949,-1.5707963267949,0.,0.,            59P     78
1.5707963267949,1.5707963267949,3.14159265358979,                     59P     79
3.14159265358979,3.14159265358979,1.,0.707106781186548,1.,            59P     80
0.707106781186548,1.,0.707106781186548,1.,0.707106781186548,1.,       59P     81
10.6000438681553,-1.2981309793958D-15,25.9458927632856,               59P     82
10.6000438681553,-10.6000438681553,25.9458927632856,                  59P     83
-6.49065489697898D-16,-10.6000438681553,25.9458927632856,             59P     84
-10.6000438681553,-10.6000438681553,25.9458927632856,                 59P     85
-10.6000438681553,0.,25.9458927632856,-10.6000438681553,              59P     86
10.6000438681553,25.9458927632856,-6.49065489697898D-16,              59P     87
10.6000438681553,25.9458927632856,10.6000438681553,                   59P     88
10.6000438681553,25.9458927632856,10.6000438681553,                   59P     89
1.2981309793958D-15,25.9458927632856,-3.14159265358979,               59P     90
3.14159265358979,0.,0.,0.;                                            59P     91
126,8,2,0,1,0,0,-3.14159265358979,-3.14159265358979,                  61P     92
-3.14159265358979,-1.5707963267949,-1.5707963267949,0.,0.,            61P     93
1.5707963267949,1.5707963267949,3.14159265358979,                     61P     94
3.14159265358979,3.14159265358979,1.,0.707106781186548,1.,            61P     95
0.707106781186548,1.,0.707106781186548,1.,0.707106781186548,1.,       61P     96
-16.5,-2.02066721859313D-15,27.,-16.5,-16.5,27.,                      61P     97
1.01033360929657D-15,-16.5,27.,16.5,-16.5,27.,16.5,0.,27.,16.5,       61P     98
16.5,27.,1.01033360929657D-15,16.5,27.,-16.5,16.5,27.,-16.5,          61P     99
2.02066721859313D-15,27.,-3.14159265358979,3.14159265358979,0.,       61P    100
0.,0.;                                                                61P    101
126,2,2,0,0,0,0,1.5707963267949,1.5707963267949,1.5707963267949,      63P    102
3.14159265358979,3.14159265358979,3.14159265358979,1.,                63P    103
0.707106781186548,1.,6.12323399573677D-16,10.,22.,-10.,10.,22.,       63P    104
-10.,1.22464679914735D-15,22.,1.5707963267949,3.14159265358979,       63P    105
0.,0.,0.;                                                             63P    106
126,2,2,0,0,0,0,6.28318530717959,6.28318530717959,                    65P    107
6.28318530717959,7.85398163397448,7.85398163397448,                   65P    108
7.85398163397448,1.,0.707106781186547,1.,10.,                         65P    109
-2.44929359829471D-15,22.,10.,10.,22.,3.06161699786838D-15,10.,       65P    110
22.,6.28318530717959,7.85398163397448,0.,0.,0.;                       65P    111
126,2,2,0,0,0,0,-3.14159265358979,-3.14159265358979,                  67P    112
-3.14159265358979,-2.8397690784625,-2.8397690784625,                  67P    113
-2.8397690784625,1.,0.988634411113548,1.,10.,0.,22.,10.,0.,           67P    114
24.0185701055134,10.6000438681553,0.,25.9458927632855,                67P    115
-3.14159265358979,-2.8397690784625,0.,0.,0.;                          67P    116
126,4,2,0,0,0,0,3.14159265358979,3.14159265358979,                    69P    117
3.14159265358979,4.71238898038469,4.71238898038469,                   69P    118
6.28318530717959,6.28318530717959,6.28318530717959,1.,                69P    119
0.707106781186548,1.,0.707106781186547,1.,-10.,                       69P    120
1.22464679914735D-15,22.,-10.,-10.,22.,-1.83697019872103D-15,         69P    121
-10.,22.,10.,-10.,22.,10.,-2.44929359829471D-15,22.,                  69P    122
3.14159265358979,6.28318530717959,0.,0.,0.;                           69P    123
126,2,2,0,0,0,0,-3.14159265358979,-3.14159265358979,                  71P    124
-3.14159265358979,-1.5707963267949,-1.5707963267949,                  71P    125
-1.5707963267949,1.,0.707106781186548,1.,-12.,0.,22.,-12.,0.,         71P    126
24.,-14.,0.,24.,-3.14159265358979,-1.5707963267949,0.,0.,0.;          71P    127
126,8,2,0,1,0,0,-3.14159265358979,-3.14159265358979,                  73P    128
-3.14159265358979,-1.5707963267949,-1.5707963267949,0.,0.,            73P    129
1.5707963267949,1.5707963267949,3.14159265358979,                     73P    130
3.14159265358979,3.14159265358979,1.,0.707106781186548,1.,            73P    131
0.707106781186548,1.,0.707106781186548,1.,0.707106781186548,1.,       73P    132
-14.,1.71450551880629D-15,24.,-14.,14.,24.,8.57252759403147D-16,      73P    133
14.,24.,14.,14.,24.,14.,0.,24.,14.,-14.,24.,                          73P    134
8.57252759403147D-16,-14.,24.,-14.,-14.,24.,-14.,                     73P    135
-1.71450551880629D-15,24.,-3.14159265358979,3.14159265358979,0.,      73P    136
0.,0.;                                                                73P    137
126,8,2,0,1,0,0,-3.14159265358979,-3.14159265358979,                  75P    138
-3.14159265358979,-1.5707963267949,-1.5707963267949,0.,0.,            75P    139
1.5707963267949,1.5707963267949,3.14159265358979,                     75P    140
3.14159265358979,3.14159265358979,1.,0.707106781186548,1.,            75P    141
0.707106781186548,1.,0.707106781186548,1.,0.707106781186548,1.,       75P    142
-16.5,-2.02066721859313D-15,24.,-16.5,-16.5,24.,                      75P    143
1.01033360929657D-15,-16.5,24.,16.5,-16.5,24.,16.5,0.,24.,16.5,       75P    144
16.5,24.,1.01033360929657D-15,16.5,24.,-16.5,16.5,24.,-16.5,          75P    145
2.02066721859313D-15,24.,-3.14159265358979,3.14159265358979,0.,       75P    146
0.,0.;                                                                75P    147
126,1,1,0,0,1,0,-0.181818181818182,-0.181818181818182,0.,0.,1.,       77P    148
1.,-16.5,0.,27.,-16.5,0.,24.,-0.181818181818182,0.,0.,0.,0.;          77P    149
126,1,1,0,0,1,0,-2.19999999999999,-2.19999999999999,0.,0.,1.,1.,      79P    150
-10.,0.,22.,-10.,0.,0.,-2.19999999999999,0.,0.,0.,0.;                 79P    151
128,1,8,1,2,0,1,0,0,1,-0.244780218506114,-0.244780218506114,          81P    152
0.244780218506114,0.244780218506114,-3.14159265358979,                81P    153
-3.14159265358979,-3.14159265358979,-1.5707963267949,                 81P    154
-1.5707963267949,0.,0.,1.5707963267949,1.5707963267949,               81P    155
3.14159265358979,3.14159265358979,3.14159265358979,1.,1.,             81P    156
0.707106781186548,0.707106781186548,1.,1.,0.707106781186548,          81P    157
0.707106781186548,1.,1.,0.707106781186548,0.707106781186548,1.,       81P    158
1.,0.707106781186548,0.707106781186548,1.,1.,-12.,0.,5.,-10.,0.,      81P    159
-5.55111512312578D-16,-12.,-12.,5.,-10.,-10.,                         81P    160
-5.55111512312578D-16,0.,-12.,5.,0.,-10.,-5.55111512312578D-16,       81P    161
12.,-12.,5.,10.,-10.,-5.55111512312578D-16,12.,0.,5.,10.,0.,          81P    162
-5.55111512312578D-16,12.,12.,5.,10.,10.,-5.55111512312578D-16,       81P    163
0.,12.,5.,0.,10.,-5.55111512312578D-16,-12.,12.,5.,-10.,10.,          81P    164
-5.55111512312578D-16,-12.,0.,5.,-10.,0.,-5.55111512312578D-16,       81P    165
-0.244780218506114,0.244780218506114,-3.14159265358979,               81P    166
3.14159265358979;                                                     81P    167
128,1,8,1,2,0,1,0,0,1,0.416666666666667,0.416666666666667,            83P    168
1.83333333333333,1.83333333333333,-3.14159265358979,                  83P    169
-3.14159265358979,-3.14159265358979,-1.5707963267949,                 83P    170
-1.5707963267949,0.,0.,1.5707963267949,1.5707963267949,               83P    171
3.14159265358979,3.14159265358979,3.14159265358979,1.,1.,             83P    172
0.707106781186548,0.707106781186548,1.,1.,0.707106781186548,          83P    173
0.707106781186548,1.,1.,0.707106781186548,0.707106781186548,1.,       83P    174
1.,0.707106781186548,0.707106781186548,1.,1.,-12.,0.,22.,-12.,        83P    175
0.,5.,-12.,-12.,22.,-12.,-12.,5.,0.,-12.,22.,0.,-12.,5.,12.,          83P    176
-12.,22.,12.,-12.,5.,12.,0.,22.,12.,0.,5.,12.,12.,22.,12.,12.,        83P    177
5.,0.,12.,22.,0.,12.,5.,-12.,12.,22.,-12.,12.,5.,-12.,0.,22.,         83P    178
-12.,0.,5.,0.416666666666667,1.83333333333333,-3.14159265358979,      83P    179
3.14159265358979;                                                     83P    180
128,2,8,2,2,0,1,0,0,1,-2.8397690784625,-2.8397690784625,              85P    181
-2.8397690784625,-1.5707963267949,-1.5707963267949,                   85P    182
-1.5707963267949,-3.14159265358979,-3.14159265358979,                 85P    183
-3.14159265358979,-1.5707963267949,-1.5707963267949,0.,0.,            85P    184
1.5707963267949,1.5707963267949,3.14159265358979,                     85P    185
3.14159265358979,3.14159265358979,1.,0.805376260573386,1.,            85P    186
0.707106781186548,0.569487015258105,0.707106781186548,1.,             85P    187
0.805376260573386,1.,0.707106781186548,0.569487015258105,             85P    188
0.707106781186548,1.,0.805376260573386,1.,0.707106781186548,          85P    189
0.569487015258105,0.707106781186548,1.,0.805376260573386,1.,          85P    190
0.707106781186548,0.569487015258105,0.707106781186548,1.,             85P    191
0.805376260573386,1.,12.0322378646689,0.,27.,10.9282248197038,        85P    192
0.,27.,10.6000438681553,0.,25.9458927632856,12.0322378646689,         85P    193
-12.0322378646689,27.,10.9282248197038,-10.9282248197038,27.,         85P    194
10.6000438681553,-10.6000438681553,25.9458927632856,0.,               85P    195
-12.0322378646689,27.,0.,-10.9282248197038,27.,0.,                    85P    196
-10.6000438681553,25.9458927632856,-12.0322378646689,                 85P    197
-12.0322378646689,27.,-10.9282248197038,-10.9282248197038,27.,        85P    198
-10.6000438681553,-10.6000438681553,25.9458927632856,                 85P    199
-12.0322378646689,0.,27.,-10.9282248197038,0.,27.,                    85P    200
-10.6000438681553,0.,25.9458927632856,-12.0322378646689,              85P    201
12.0322378646689,27.,-10.9282248197038,10.9282248197038,27.,          85P    202
-10.6000438681553,10.6000438681553,25.9458927632856,0.,               85P    203
12.0322378646689,27.,0.,10.9282248197038,27.,0.,                      85P    204
10.6000438681553,25.9458927632856,12.0322378646689,                   85P    205
12.0322378646689,27.,10.9282248197038,10.9282248197038,27.,           85P    206
10.6000438681553,10.6000438681553,25.9458927632856,                   85P    207
12.0322378646689,0.,27.,10.9282248197038,0.,27.,                      85P    208
10.6000438681553,0.,25.9458927632856,-2.8397690784625,                85P    209
-1.5707963267949,-3.14159265358979,3.14159265358979;                  85P    210
128,1,1,1,1,0,0,1,0,0,-1.651,-1.651,1.651,1.651,-1.651,-1.651,        87P    211
1.651,1.651,1.,1.,1.,1.,-16.51,-16.51,27.,16.51,-16.51,27.,           87P    212
-16.51,16.51,27.,16.51,16.51,27.,-1.651,1.651,-1.651,1.651;           87P    213
128,2,8,2,2,0,1,0,0,1,-3.14159265358979,-3.14159265358979,            89P    214
-3.14159265358979,-2.8397690784625,-2.8397690784625,                  89P    215
-2.8397690784625,-3.14159265358979,-3.14159265358979,                 89P    216
-3.14159265358979,-1.5707963267949,-1.5707963267949,0.,0.,            89P    217
1.5707963267949,1.5707963267949,3.14159265358979,                     89P    218
3.14159265358979,3.14159265358979,1.,0.988634411113548,1.,            89P    219
0.707106781186548,0.699070096212759,0.707106781186548,1.,             89P    220
0.988634411113548,1.,0.707106781186548,0.699070096212759,             89P    221
0.707106781186548,1.,0.988634411113548,1.,0.707106781186548,          89P    222
0.699070096212759,0.707106781186548,1.,0.988634411113548,1.,          89P    223
0.707106781186548,0.699070096212759,0.707106781186548,1.,             89P    224
0.988634411113548,1.,10.6000438681553,0.,25.9458927632855,10.,        89P    225
0.,24.0185701055134,10.,0.,22.,10.6000438681553,                      89P    226
-10.6000438681553,25.9458927632855,9.99999999999999,                  89P    227
-9.99999999999999,24.0185701055134,9.99999999999999,                  89P    228
-9.99999999999999,22.,0.,-10.6000438681553,25.9458927632855,0.,       89P    229
-10.,24.0185701055134,0.,-10.,22.,-10.6000438681553,                  89P    230
-10.6000438681553,25.9458927632855,-9.99999999999999,                 89P    231
-9.99999999999999,24.0185701055134,-9.99999999999999,                 89P    232
-9.99999999999999,22.,-10.6000438681553,0.,25.9458927632855,          89P    233
-10.,0.,24.0185701055134,-10.,0.,22.,-10.6000438681553,               89P    234
10.6000438681553,25.9458927632855,-9.99999999999999,                  89P    235
9.99999999999999,24.0185701055134,-9.99999999999999,                  89P    236
9.99999999999999,22.,0.,10.6000438681553,25.9458927632855,0.,         89P    237
10.,24.0185701055134,0.,10.,22.,10.6000438681553,                     89P    238
10.6000438681553,25.9458927632855,9.99999999999999,                   89P    239
9.99999999999999,24.0185701055134,9.99999999999999,                   89P    240
9.99999999999999,22.,10.6000438681553,0.,25.9458927632855,10.,        89P    241
0.,24.0185701055134,10.,0.,22.,-3.14159265358979,                     89P    242
-2.8397690784625,-3.14159265358979,3.14159265358979;                  89P    243
128,2,8,2,2,0,1,0,0,1,1.5707963267949,1.5707963267949,                91P    244
1.5707963267949,3.14159265358979,3.14159265358979,                    91P    245
3.14159265358979,-3.14159265358979,-3.14159265358979,                 91P    246
-3.14159265358979,-1.5707963267949,-1.5707963267949,0.,0.,            91P    247
1.5707963267949,1.5707963267949,3.14159265358979,                     91P    248
3.14159265358979,3.14159265358979,1.,0.707106781186548,1.,            91P    249
0.707106781186548,0.5,0.707106781186548,1.,0.707106781186548,1.,      91P    250
0.707106781186548,0.5,0.707106781186548,1.,0.707106781186548,1.,      91P    251
0.707106781186548,0.5,0.707106781186548,1.,0.707106781186548,1.,      91P    252
0.707106781186548,0.5,0.707106781186548,1.,0.707106781186548,1.,      91P    253
-14.,0.,24.,-12.,0.,24.,-12.,0.,22.,-14.,-14.,24.,-12.,-12.,24.,      91P    254
-12.,-12.,22.,0.,-14.,24.,0.,-12.,24.,0.,-12.,22.,14.,-14.,24.,       91P    255
12.,-12.,24.,12.,-12.,22.,14.,0.,24.,12.,0.,24.,12.,0.,22.,14.,       91P    256
14.,24.,12.,12.,24.,12.,12.,22.,0.,14.,24.,0.,12.,24.,0.,12.,         91P    257
22.,-14.,14.,24.,-12.,12.,24.,-12.,12.,22.,-14.,0.,24.,-12.,0.,       91P    258
24.,-12.,0.,22.,1.5707963267949,3.14159265358979,                     91P    259
-3.14159265358979,3.14159265358979;                                   91P    260
128,1,1,1,1,0,0,1,0,0,-1.651,-1.651,1.651,1.651,-1.651,-1.651,        93P    261
1.651,1.651,1.,1.,1.,1.,16.51,-16.51,24.,-16.51,-16.51,24.,           93P    262
16.51,16.51,24.,-16.51,16.51,24.,-1.651,1.651,-1.651,1.651;           93P    263
128,1,8,1,2,0,1,0,0,1,0.,0.,0.181818181818182,0.181818181818182,      95P    264
-3.14159265358979,-3.14159265358979,-3.14159265358979,                95P    265
-1.5707963267949,-1.5707963267949,0.,0.,1.5707963267949,              95P    266
1.5707963267949,3.14159265358979,3.14159265358979,                    95P    267
3.14159265358979,1.,1.,0.707106781186548,0.707106781186548,1.,        95P    268
1.,0.707106781186548,0.707106781186548,1.,1.,0.707106781186548,       95P    269
0.707106781186548,1.,1.,0.707106781186548,0.707106781186548,1.,       95P    270
1.,-16.5,0.,27.,-16.5,0.,24.,-16.5,-16.5,27.,-16.5,-16.5,24.,0.,      95P    271
-16.5,27.,0.,-16.5,24.,16.5,-16.5,27.,16.5,-16.5,24.,16.5,0.,         95P    272
27.,16.5,0.,24.,16.5,16.5,27.,16.5,16.5,24.,0.,16.5,27.,0.,16.5,      95P    273
24.,-16.5,16.5,27.,-16.5,16.5,24.,-16.5,0.,27.,-16.5,0.,24.,0.,       95P    274
0.181818181818182,-3.14159265358979,3.14159265358979;                 95P    275
128,1,8,1,2,0,1,0,0,1,0.,0.,2.19999999999999,2.19999999999999,        97P    276
-3.14159265358979,-3.14159265358979,-3.14159265358979,                97P    277
-1.5707963267949,-1.5707963267949,0.,0.,1.5707963267949,              97P    278
1.5707963267949,3.14159265358979,3.14159265358979,                    97P    279
3.14159265358979,1.,1.,0.707106781186548,0.707106781186548,1.,        97P    280
1.,0.707106781186548,0.707106781186548,1.,1.,0.707106781186548,       97P    281
0.707106781186548,1.,1.,0.707106781186548,0.707106781186548,1.,       97P    282
1.,-10.,0.,0.,-10.,0.,22.,-10.,-10.,0.,-10.,-10.,22.,0.,-10.,0.,      97P    283
0.,-10.,22.,10.,-10.,0.,10.,-10.,22.,10.,0.,0.,10.,0.,22.,10.,        97P    284
10.,0.,10.,10.,22.,0.,10.,0.,0.,10.,22.,-10.,10.,0.,-10.,10.,         97P    285
22.,-10.,0.,0.,-10.,0.,22.,0.,2.19999999999999,                       97P    286
-3.14159265358979,3.14159265358979;                                   97P    287
502,11,-12.,1.46957615897682D-15,5.,-10.,-1.22464679914735D-15,       99P    288
0.,-12.,-1.46957615897682D-15,22.,12.0322378646689,                   99P    289
1.47352415875464D-15,27.,10.6000438681553,-1.2981309793958D-15,       99P    290
25.9458927632856,-16.5,-2.02066721859313D-15,27.,0.,10.,22.,          99P    291
-10.,0.,22.,10.,0.,22.,-14.,1.71450551880629D-15,24.,-16.5,           99P    292
-2.02066721859313D-15,24.;                                            99P    293
504,18,45,99,1,99,1,47,99,1,99,2,49,99,2,99,2,51,99,3,99,3,53,       101P    294
99,3,99,1,55,99,4,99,4,57,99,4,99,5,59,99,5,99,5,61,99,6,99,6,       101P    295
63,99,7,99,8,65,99,9,99,7,67,99,9,99,5,69,99,8,99,9,71,99,3,99,      101P    296
10,73,99,10,99,10,75,99,11,99,11,77,99,6,99,11,79,99,8,99,2;         101P    297
406,1,5HBody1;                                                       103P    298
314,62.7450980392157,62.7450980392157,62.7450980392157,13HSteel      105P    299
- Satin;                                                             105P    300
S      1G      3D    106P    300                                        T      1
